<svg id="svg" version="1.1" xmlns="http://www.w3.org/2000/svg" xmlns:xlink="http://www.w3.org/1999/xlink" width="400" height="76.92307692307692" viewBox="0, 0, 400,76.92307692307692"><g id="svgg"><path id="path0" d="M90.807 16.845 C 89.383 17.568,89.500 15.969,89.501 34.776 C 89.501 53.522,89.407 52.178,90.765 52.746 C 91.662 53.120,104.698 53.125,105.447 52.751 C 106.783 52.085,106.821 51.778,106.828 41.494 L 106.833 33.405 107.317 33.119 C 108.100 32.657,108.748 32.745,109.197 33.375 L 109.583 33.917 109.667 43.167 C 109.712 48.254,109.814 52.548,109.893 52.708 C 110.097 53.124,113.333 53.143,113.746 52.730 C 114.226 52.250,114.051 33.911,113.554 32.698 C 112.512 30.157,110.606 29.301,107.390 29.930 L 106.863 30.033 106.801 24.225 C 106.712 15.776,107.520 16.493,98.109 16.518 C 91.943 16.535,91.369 16.561,90.807 16.845 M333.814 19.906 C 333.757 19.964,333.082 20.078,332.314 20.160 C 327.459 20.677,323.842 23.065,321.836 27.079 C 319.459 31.833,319.167 39.773,321.167 45.250 C 321.818 47.031,323.302 49.344,324.392 50.277 C 325.555 51.272,325.838 51.500,325.912 51.500 C 325.954 51.500,326.325 51.713,326.736 51.974 C 327.148 52.235,327.844 52.579,328.284 52.737 C 328.724 52.896,329.233 53.090,329.417 53.168 C 330.821 53.768,335.437 54.054,338.000 53.701 C 340.620 53.339,340.835 53.299,340.928 53.149 C 340.978 53.067,341.166 53.000,341.345 53.000 C 341.525 53.000,341.801 52.934,341.961 52.853 C 342.120 52.772,342.475 52.604,342.750 52.479 C 347.676 50.251,350.504 44.621,350.499 37.051 C 350.494 30.292,348.702 25.724,344.829 22.599 C 343.969 21.905,341.537 20.810,340.083 20.463 C 338.566 20.101,334.018 19.697,333.814 19.906 M367.000 19.991 C 366.771 20.069,366.193 20.141,365.716 20.150 C 365.239 20.159,364.677 20.232,364.466 20.312 C 364.256 20.392,363.633 20.595,363.083 20.763 C 362.533 20.931,361.837 21.203,361.537 21.368 C 361.236 21.532,360.914 21.667,360.821 21.667 C 360.728 21.667,360.562 21.742,360.451 21.834 C 360.341 21.926,359.838 22.277,359.335 22.614 C 355.302 25.316,353.444 29.828,353.444 36.917 C 353.444 44.859,355.883 49.837,360.954 52.247 C 361.484 52.498,362.047 52.771,362.206 52.852 C 362.365 52.933,362.610 53.000,362.750 53.000 C 362.890 53.000,363.135 53.068,363.294 53.152 C 363.453 53.236,364.033 53.394,364.583 53.503 C 366.112 53.808,366.056 53.772,365.917 54.378 C 365.792 54.922,365.621 55.846,365.410 57.102 C 365.276 57.905,365.709 58.167,367.171 58.167 C 368.944 58.167,370.000 59.035,370.000 60.493 C 370.000 62.008,368.826 62.908,366.917 62.856 C 365.968 62.831,364.484 62.608,364.404 62.480 C 364.354 62.399,363.793 62.333,363.157 62.333 L 362.000 62.333 362.000 63.658 C 362.000 65.788,362.558 66.061,366.917 66.061 C 370.151 66.061,370.516 66.001,372.083 65.206 C 375.868 63.286,375.961 57.884,372.238 56.258 C 371.878 56.101,371.453 55.903,371.294 55.819 C 371.135 55.735,370.822 55.667,370.599 55.667 C 369.944 55.667,369.667 55.490,369.667 55.073 C 369.667 54.662,369.984 53.842,370.152 53.821 C 370.206 53.815,370.887 53.742,371.667 53.659 C 373.406 53.474,374.149 53.351,374.583 53.177 C 374.767 53.104,375.442 52.875,376.083 52.669 C 377.127 52.334,377.562 52.132,379.011 51.311 C 380.047 50.725,380.100 50.417,379.365 49.292 C 378.855 48.512,378.085 48.449,376.833 49.083 C 373.700 50.671,371.656 47.263,371.144 39.597 C 370.468 29.492,373.123 22.703,376.917 24.833 C 378.208 25.558,380.015 24.719,379.998 23.402 C 379.990 22.775,376.151 20.996,373.667 20.469 C 371.579 20.026,367.709 19.748,367.000 19.991 M313.972 20.970 C 313.819 21.032,312.632 22.116,311.335 23.378 C 308.664 25.977,308.754 25.949,308.609 24.241 C 308.442 22.268,308.099 21.733,306.667 21.216 C 305.751 20.885,294.012 20.918,293.000 21.254 C 290.900 21.952,291.090 20.446,291.046 36.750 C 291.003 52.620,290.946 51.906,292.333 52.610 C 293.308 53.105,305.596 53.221,306.731 52.747 C 308.622 51.957,308.667 51.675,308.667 40.611 L 308.667 31.833 309.058 31.833 C 309.904 31.833,310.981 32.651,311.322 33.553 C 311.440 33.864,311.500 37.070,311.500 43.086 C 311.500 54.051,311.250 53.000,313.856 53.000 C 316.634 53.000,316.366 54.090,316.295 43.055 C 316.230 33.152,316.230 33.146,315.275 31.750 C 314.634 30.814,312.755 29.667,311.863 29.667 C 311.597 29.667,310.500 29.215,310.500 29.105 C 310.500 29.085,310.894 28.775,311.375 28.416 C 311.856 28.056,312.479 27.572,312.759 27.340 C 313.039 27.107,313.520 26.729,313.827 26.500 C 314.135 26.271,314.468 26.006,314.568 25.911 C 314.668 25.816,315.050 25.516,315.417 25.245 C 315.783 24.974,316.121 24.710,316.167 24.659 C 316.212 24.608,316.531 24.355,316.875 24.096 C 318.417 22.939,315.870 20.197,313.972 20.970 M20.915 21.341 C 19.664 21.949,19.755 20.751,19.705 37.316 C 19.651 55.055,19.287 53.000,22.483 53.000 C 25.648 53.000,25.398 53.736,24.981 45.651 C 24.749 41.151,24.831 40.759,25.690 42.236 C 25.998 42.765,26.420 43.472,26.629 43.807 C 26.837 44.142,27.055 44.529,27.114 44.667 C 27.173 44.804,27.348 45.104,27.503 45.333 C 27.659 45.563,27.973 46.087,28.203 46.500 C 29.596 49.007,29.899 49.425,30.561 49.755 C 32.364 50.655,33.740 49.943,35.081 47.417 C 35.519 46.592,35.932 45.842,36.000 45.750 C 36.067 45.658,36.555 44.758,37.085 43.750 C 38.197 41.634,38.485 41.167,38.677 41.167 C 38.753 41.167,38.838 43.435,38.866 46.208 C 38.940 53.596,38.171 53.000,47.634 53.000 C 55.166 53.000,55.095 53.009,55.918 51.930 L 56.333 51.385 56.333 37.174 C 56.333 19.174,57.112 21.075,49.750 21.096 C 43.480 21.114,43.519 21.095,41.438 25.172 C 38.074 31.762,38.557 31.384,36.858 28.758 C 36.111 27.604,35.500 26.630,35.500 26.593 C 35.500 26.511,32.722 22.185,32.489 21.903 C 31.684 20.933,22.657 20.495,20.915 21.341 M265.083 23.667 C 265.027 23.758,264.812 23.833,264.607 23.833 C 264.401 23.833,264.162 23.893,264.075 23.966 C 263.988 24.040,263.504 24.238,263.000 24.406 C 262.496 24.575,262.012 24.778,261.925 24.857 C 261.838 24.935,261.631 25.000,261.464 25.000 C 261.298 25.000,261.013 25.075,260.831 25.167 C 260.649 25.258,260.351 25.408,260.169 25.500 C 259.987 25.592,259.702 25.667,259.536 25.667 C 259.369 25.667,259.162 25.726,259.075 25.799 C 258.988 25.872,258.617 26.031,258.250 26.152 C 257.524 26.391,256.584 26.773,256.127 27.014 C 255.968 27.098,255.723 27.167,255.583 27.167 C 255.443 27.167,255.199 27.238,255.039 27.326 C 254.880 27.413,253.985 27.768,253.051 28.115 C 250.945 28.895,251.000 28.787,251.000 32.167 L 251.000 34.819 249.708 34.868 L 248.417 34.917 248.366 35.999 C 248.301 37.390,248.575 37.667,250.018 37.667 L 251.000 37.667 251.000 42.375 C 251.001 50.814,251.801 52.430,256.500 53.480 C 258.552 53.938,267.182 53.686,267.742 53.151 C 267.829 53.068,268.106 53.000,268.359 53.000 C 268.611 53.000,268.990 52.933,269.200 52.851 C 269.411 52.769,269.921 52.603,270.333 52.483 C 270.746 52.363,271.402 52.127,271.792 51.958 L 272.500 51.651 272.500 50.409 L 272.500 49.167 271.656 49.167 C 271.191 49.167,270.664 49.245,270.485 49.342 C 270.055 49.571,269.002 48.999,268.708 48.376 C 268.556 48.052,268.500 46.560,268.500 42.800 L 268.500 37.667 270.242 37.667 C 272.706 37.667,272.833 37.587,272.833 36.057 L 272.833 34.833 270.667 34.833 L 268.500 34.833 268.500 29.658 C 268.500 23.207,268.591 23.500,266.589 23.500 C 265.817 23.500,265.140 23.575,265.083 23.667 M343.470 27.625 C 347.483 30.182,347.577 43.402,343.601 46.104 C 341.167 47.758,338.543 45.207,337.822 40.484 C 336.609 32.537,339.795 25.284,343.470 27.625 M231.083 29.494 C 230.900 29.576,230.462 29.649,230.109 29.655 C 228.642 29.682,225.826 30.679,224.000 31.819 C 223.115 32.372,221.000 34.399,221.000 34.695 C 221.000 34.775,220.820 35.125,220.600 35.473 C 218.799 38.327,218.670 44.061,220.334 47.338 C 221.514 49.663,223.132 51.223,225.431 52.254 C 225.973 52.496,226.547 52.764,226.706 52.848 C 226.865 52.931,227.169 53.000,227.381 53.000 C 227.593 53.000,227.838 53.067,227.925 53.150 C 228.331 53.533,232.898 53.847,235.409 53.665 C 238.890 53.412,240.373 53.043,242.917 51.799 C 245.402 50.584,245.615 50.359,245.146 49.447 C 244.536 48.263,243.730 48.047,242.479 48.734 C 239.927 50.134,237.485 48.306,236.917 44.570 C 236.755 43.503,236.719 43.511,242.014 43.461 L 246.750 43.417 246.799 41.333 C 246.955 34.698,243.426 30.554,236.833 29.631 C 235.254 29.409,231.471 29.319,231.083 29.494 M165.917 29.924 C 165.458 30.064,164.815 30.294,164.488 30.435 C 163.950 30.666,163.792 30.665,162.880 30.429 C 161.576 30.091,151.426 30.056,150.083 30.385 C 147.882 30.923,148.000 30.288,148.000 41.645 C 148.000 52.065,147.998 52.048,148.982 52.504 C 149.221 52.615,149.547 52.772,149.706 52.853 C 150.430 53.221,163.255 53.025,163.986 52.635 C 165.320 51.923,165.243 52.513,165.304 42.461 L 165.359 33.505 165.845 33.158 C 166.563 32.647,167.309 32.772,167.786 33.483 L 168.167 34.049 168.167 43.154 C 168.167 54.018,167.936 53.000,170.393 53.000 C 171.498 53.000,172.170 52.930,172.300 52.800 C 172.451 52.649,172.500 50.259,172.500 43.064 L 172.500 33.527 173.061 33.180 C 173.754 32.752,174.508 32.734,174.853 33.138 C 175.468 33.856,175.500 34.364,175.500 43.452 C 175.500 49.271,175.560 52.467,175.673 52.678 C 175.952 53.201,179.202 53.161,179.574 52.630 C 179.896 52.170,179.965 35.911,179.653 34.014 C 178.992 29.996,175.984 28.708,171.426 30.491 C 171.003 30.657,170.797 30.621,169.933 30.234 C 168.698 29.679,167.118 29.557,165.917 29.924 M201.333 30.168 C 199.943 30.644,199.897 30.649,198.865 30.410 C 197.546 30.105,187.606 30.058,186.365 30.351 C 183.927 30.928,184.083 30.151,184.083 41.667 C 184.083 52.451,184.025 51.943,185.333 52.609 C 186.355 53.129,198.968 53.208,199.985 52.700 C 201.310 52.039,201.240 52.574,201.333 42.495 C 201.425 32.564,201.351 33.203,202.458 32.900 C 204.210 32.421,204.236 32.567,204.333 43.333 C 204.379 48.421,204.477 52.677,204.552 52.792 C 204.646 52.937,205.231 53.000,206.494 53.000 L 208.301 53.000 208.490 52.458 C 208.625 52.075,208.673 49.231,208.657 42.756 L 208.634 33.594 209.109 33.210 C 209.813 32.639,210.627 32.750,211.120 33.483 L 211.500 34.049 211.500 43.000 C 211.500 49.069,211.559 52.119,211.683 52.475 L 211.866 53.000 213.677 53.000 C 215.320 53.000,215.505 52.969,215.667 52.666 C 216.067 51.919,215.805 33.551,215.380 32.513 C 214.318 29.917,211.663 29.077,208.249 30.256 C 207.158 30.632,206.883 30.674,206.609 30.502 C 205.147 29.590,203.354 29.476,201.333 30.168 M62.655 30.395 C 60.535 30.920,60.500 31.067,60.500 39.572 C 60.501 47.748,60.820 49.916,62.219 51.231 C 63.121 52.079,64.673 52.874,65.833 53.082 C 69.575 53.754,75.985 53.395,79.961 52.291 L 80.838 52.048 81.046 52.482 C 81.319 53.053,84.569 53.254,84.956 52.724 C 85.285 52.275,85.261 31.026,84.931 30.575 C 84.636 30.172,82.286 30.008,81.494 30.336 L 81.000 30.540 81.000 39.861 C 81.000 50.211,81.061 49.657,79.896 49.906 C 78.070 50.297,78.097 50.432,77.996 40.667 C 77.938 35.056,77.847 32.111,77.724 31.833 C 77.398 31.097,76.716 30.569,75.828 30.364 C 74.692 30.101,63.736 30.127,62.655 30.395 M126.968 30.255 C 126.911 30.311,126.464 30.423,125.974 30.503 C 124.734 30.705,124.138 30.836,123.750 30.994 C 123.567 31.068,123.079 31.228,122.667 31.349 C 120.564 31.966,118.613 33.274,118.960 33.833 C 119.074 34.017,119.260 34.335,119.375 34.542 C 119.811 35.326,120.760 35.393,122.061 34.731 C 122.532 34.492,123.047 34.229,123.206 34.148 C 124.911 33.276,126.500 34.523,126.500 36.733 C 126.500 37.894,126.246 38.167,125.165 38.167 C 124.718 38.167,124.307 38.242,124.250 38.333 C 124.193 38.425,123.925 38.500,123.655 38.500 C 123.384 38.500,123.032 38.569,122.873 38.653 C 122.714 38.737,122.226 38.963,121.789 39.155 C 117.333 41.113,116.046 46.919,119.310 50.342 C 119.743 50.795,120.182 51.167,120.285 51.167 C 120.388 51.167,120.497 51.226,120.528 51.300 C 120.590 51.450,121.991 52.126,122.750 52.374 C 124.127 52.822,125.379 52.890,133.333 52.947 C 144.767 53.029,143.724 53.732,143.806 45.890 C 143.860 40.669,143.703 37.606,143.318 36.345 C 142.624 34.071,141.277 32.339,139.568 31.521 C 139.118 31.306,138.620 31.063,138.461 30.982 C 138.301 30.900,138.035 30.833,137.869 30.833 C 137.703 30.833,137.495 30.766,137.408 30.684 C 137.052 30.347,127.277 29.945,126.968 30.255 M240.627 35.000 C 241.875 35.603,242.554 36.932,242.803 39.258 C 242.998 41.074,243.123 41.000,239.845 41.000 C 236.438 41.000,236.531 41.055,236.827 39.223 C 237.215 36.819,237.904 35.511,239.051 35.001 C 239.933 34.609,239.818 34.609,240.627 35.000 M126.316 41.062 C 126.450 41.224,126.493 42.583,126.461 45.687 L 126.417 50.083 126.016 50.140 C 124.772 50.316,122.694 49.084,122.017 47.769 C 120.901 45.599,122.319 41.333,124.157 41.333 C 124.309 41.333,124.505 41.266,124.592 41.183 C 124.966 40.827,126.057 40.751,126.316 41.062 " stroke="none" fill="#050406" fill-rule="evenodd"></path><path id="path1" d="M0.000 38.417 L 0.000 76.833 200.000 76.833 L 400.000 76.833 400.000 38.417 L 400.000 0.000 200.000 0.000 L 0.000 0.000 0.000 38.417 M105.666 16.708 C 106.988 17.381,106.974 17.308,106.988 23.867 L 107.000 29.650 108.421 29.550 C 109.837 29.450,111.833 29.826,111.833 30.193 C 111.833 30.270,111.931 30.333,112.051 30.333 C 112.707 30.333,113.791 32.130,114.146 33.804 C 114.475 35.360,114.402 52.240,114.064 52.756 C 113.775 53.197,110.284 53.393,109.667 53.004 C 109.451 52.867,109.405 51.557,109.333 43.435 C 109.251 34.192,109.244 34.016,108.899 33.554 C 108.445 32.945,108.118 32.894,107.501 33.333 L 107.000 33.689 107.000 42.504 C 107.000 52.540,107.042 52.210,105.683 52.885 C 104.694 53.376,91.210 53.306,90.320 52.806 C 88.916 52.017,89.000 53.155,89.000 34.860 C 89.000 16.285,88.905 17.275,90.750 16.601 C 92.019 16.136,104.723 16.228,105.666 16.708 M338.583 19.976 C 339.814 20.146,341.236 20.514,341.436 20.714 C 341.502 20.780,341.726 20.833,341.935 20.833 C 342.143 20.833,342.360 20.908,342.417 21.000 C 342.473 21.092,342.659 21.167,342.829 21.167 C 343.000 21.167,343.164 21.223,343.194 21.292 C 343.225 21.360,343.625 21.604,344.083 21.833 C 348.267 23.920,350.667 29.419,350.667 36.917 C 350.667 44.957,348.334 49.885,343.333 52.408 C 342.829 52.662,342.286 52.937,342.127 53.019 C 341.968 53.100,341.691 53.167,341.512 53.167 C 341.333 53.167,341.140 53.242,341.083 53.333 C 341.027 53.425,340.727 53.500,340.417 53.500 C 340.107 53.500,339.813 53.565,339.764 53.645 C 339.335 54.337,330.879 54.083,329.042 53.322 C 328.835 53.237,328.460 53.084,328.208 52.982 C 324.601 51.532,321.729 48.489,320.678 45.000 C 320.554 44.587,320.359 43.950,320.245 43.583 C 319.665 41.710,319.275 37.356,319.497 35.224 C 319.777 32.530,320.014 30.973,320.265 30.173 C 320.396 29.757,320.583 29.154,320.682 28.833 C 321.042 27.662,322.352 25.223,322.830 24.833 C 322.887 24.787,323.100 24.510,323.305 24.217 C 323.746 23.585,326.069 21.799,326.958 21.408 C 327.302 21.256,327.733 21.068,327.917 20.989 C 328.100 20.911,328.662 20.725,329.167 20.576 C 329.671 20.428,330.256 20.238,330.466 20.153 C 330.677 20.069,331.202 19.995,331.633 19.988 C 332.064 19.982,332.567 19.909,332.750 19.827 C 333.145 19.650,336.920 19.746,338.583 19.976 M372.083 19.976 C 373.488 20.188,374.926 20.537,375.097 20.708 C 375.166 20.777,375.398 20.833,375.613 20.833 C 375.829 20.833,376.135 20.902,376.294 20.985 C 376.453 21.068,377.085 21.365,377.699 21.643 C 380.372 22.859,380.578 23.133,379.765 24.404 L 379.171 25.333 378.174 25.333 C 377.486 25.333,376.993 25.230,376.583 25.000 C 373.152 23.073,370.857 29.810,371.501 39.917 C 371.845 45.300,372.640 47.666,374.526 48.914 C 375.319 49.439,375.476 49.437,376.547 48.889 C 378.302 47.993,379.175 48.249,380.078 49.928 L 380.406 50.538 379.911 50.940 C 379.639 51.161,379.342 51.399,379.250 51.469 C 378.905 51.732,376.494 52.833,376.262 52.833 C 376.129 52.833,375.973 52.908,375.917 53.000 C 375.860 53.092,375.598 53.167,375.333 53.167 C 375.069 53.167,374.807 53.242,374.750 53.333 C 374.693 53.425,374.356 53.500,374.000 53.500 C 373.644 53.500,373.313 53.564,373.265 53.643 C 373.216 53.721,372.572 53.826,371.832 53.877 C 370.291 53.983,369.962 54.170,370.033 54.902 C 370.073 55.309,370.170 55.427,370.500 55.468 C 375.933 56.142,377.004 63.142,372.036 65.510 C 369.192 66.866,362.369 66.559,361.679 65.044 C 361.487 64.622,361.434 62.865,361.601 62.430 C 361.721 62.117,364.309 62.042,364.610 62.344 C 365.026 62.759,368.274 62.585,368.891 62.114 C 370.857 60.615,369.438 58.458,366.374 58.287 C 364.845 58.201,364.660 57.684,365.346 55.405 C 365.683 54.285,365.562 53.833,364.927 53.833 C 364.611 53.833,364.307 53.758,364.250 53.667 C 364.193 53.575,363.893 53.500,363.583 53.500 C 363.273 53.500,362.973 53.425,362.917 53.333 C 362.860 53.242,362.667 53.167,362.488 53.167 C 362.309 53.167,362.032 53.100,361.873 53.019 C 361.714 52.937,361.171 52.662,360.667 52.408 C 358.814 51.473,356.445 49.420,355.820 48.208 C 355.690 47.956,355.533 47.712,355.471 47.665 C 355.289 47.526,354.246 45.147,354.011 44.333 C 353.892 43.921,353.730 43.396,353.650 43.167 C 352.787 40.676,352.785 33.222,353.646 30.667 C 353.724 30.438,353.877 29.950,353.988 29.583 C 354.176 28.959,354.264 28.732,354.725 27.667 C 355.521 25.831,357.700 23.283,359.387 22.215 C 360.457 21.537,361.841 20.833,362.103 20.833 C 362.232 20.833,362.468 20.764,362.627 20.679 C 363.212 20.366,364.666 20.000,365.365 19.988 C 365.760 19.982,366.233 19.910,366.417 19.829 C 366.832 19.645,370.517 19.740,372.083 19.976 M316.771 21.651 C 318.148 23.157,318.145 23.407,316.738 24.514 C 316.223 24.919,315.527 25.492,315.192 25.788 C 314.857 26.084,314.539 26.327,314.484 26.329 C 314.429 26.332,314.233 26.465,314.048 26.625 C 313.863 26.785,313.461 27.104,313.156 27.333 C 312.851 27.563,312.372 27.943,312.092 28.179 C 311.812 28.414,311.415 28.721,311.209 28.860 C 310.838 29.111,310.842 29.116,311.542 29.324 C 314.075 30.077,315.156 30.849,315.953 32.472 L 316.417 33.417 316.462 42.982 C 316.517 54.393,316.834 53.167,313.828 53.167 C 310.949 53.167,311.265 54.353,311.167 43.175 C 311.074 32.628,311.080 32.676,309.750 32.299 C 309.567 32.247,309.285 32.150,309.125 32.084 C 308.849 31.971,308.833 32.481,308.833 41.441 C 308.832 54.312,309.735 53.167,299.583 53.167 C 291.961 53.167,291.718 53.129,290.986 51.833 C 290.731 51.382,290.524 26.101,290.754 23.532 C 290.882 22.109,291.411 21.408,292.633 21.042 C 293.513 20.778,306.589 20.739,306.750 21.000 C 306.807 21.092,306.998 21.167,307.175 21.167 C 308.089 21.167,308.833 22.450,308.833 24.026 C 308.833 25.451,308.657 25.517,311.014 23.216 C 314.177 20.128,315.140 19.866,316.771 21.651 M31.417 21.000 C 31.473 21.092,31.651 21.167,31.812 21.167 C 32.283 21.167,32.837 21.887,35.081 25.417 C 36.247 27.250,37.325 28.938,37.478 29.167 C 37.630 29.396,37.860 29.789,37.989 30.041 C 38.117 30.293,38.239 30.481,38.260 30.458 C 38.307 30.405,39.476 28.186,40.912 25.427 C 42.485 22.403,43.106 21.500,43.615 21.500 C 43.735 21.500,43.833 21.425,43.833 21.333 C 43.833 21.242,44.016 21.167,44.240 21.167 C 44.464 21.167,44.693 21.092,44.750 21.000 C 44.890 20.773,54.276 20.773,54.417 21.000 C 54.473 21.092,54.684 21.170,54.885 21.175 C 55.086 21.179,55.550 21.478,55.917 21.838 L 56.583 22.493 56.635 36.121 C 56.691 50.916,56.670 51.554,56.115 52.190 C 55.263 53.166,55.258 53.167,47.531 53.167 L 40.446 53.167 39.743 52.755 C 38.567 52.065,38.500 51.727,38.500 46.463 C 38.500 43.680,38.440 41.994,38.346 42.092 C 38.261 42.179,37.912 42.775,37.570 43.417 C 37.229 44.058,36.702 45.033,36.399 45.583 C 36.096 46.133,35.601 47.068,35.299 47.660 C 34.997 48.252,34.433 49.058,34.046 49.452 L 33.342 50.167 31.913 50.167 L 30.484 50.167 29.700 49.374 C 29.269 48.938,28.758 48.282,28.564 47.916 C 28.371 47.549,27.929 46.762,27.583 46.167 C 27.237 45.571,26.868 44.933,26.764 44.750 C 25.946 43.314,25.262 42.183,25.229 42.215 C 25.156 42.289,25.486 50.916,25.584 51.500 C 25.656 51.925,25.591 52.230,25.344 52.625 L 25.005 53.167 22.474 53.167 C 18.893 53.167,19.333 55.369,19.333 37.480 L 19.333 22.345 19.851 21.756 C 20.135 21.432,20.506 21.167,20.674 21.167 C 20.843 21.167,21.027 21.092,21.083 21.000 C 21.148 20.895,23.054 20.833,26.250 20.833 C 29.446 20.833,31.352 20.895,31.417 21.000 M268.407 23.704 C 268.629 24.020,268.667 24.847,268.667 29.370 L 268.667 34.667 270.816 34.667 C 273.280 34.667,273.167 34.590,273.167 36.254 C 273.167 37.728,272.991 37.833,270.535 37.833 L 268.645 37.833 268.697 42.875 C 268.746 47.539,268.775 47.957,269.078 48.458 C 269.434 49.047,269.446 49.050,271.397 49.002 C 272.935 48.964,272.994 49.013,272.997 50.357 C 273.002 51.852,272.428 52.220,268.583 53.190 C 267.188 53.543,262.748 54.055,261.250 54.037 C 259.125 54.011,255.252 53.582,254.917 53.335 C 254.825 53.268,254.551 53.165,254.308 53.107 C 253.691 52.960,252.284 51.812,251.840 51.094 C 250.876 49.534,250.833 49.203,250.833 43.294 L 250.833 37.833 249.692 37.833 C 248.148 37.833,247.968 37.632,248.034 35.978 L 248.083 34.750 249.458 34.702 L 250.833 34.653 250.833 31.747 C 250.833 28.367,250.653 28.694,253.000 27.832 C 253.779 27.547,254.547 27.242,254.706 27.156 C 254.865 27.070,255.110 27.000,255.250 27.000 C 255.390 27.000,255.654 26.925,255.836 26.833 C 256.018 26.742,256.316 26.592,256.498 26.500 C 256.680 26.408,256.975 26.333,257.155 26.333 C 257.334 26.333,257.521 26.267,257.571 26.187 C 257.621 26.106,258.056 25.916,258.539 25.764 C 259.022 25.612,259.567 25.423,259.750 25.344 C 259.933 25.265,260.346 25.110,260.667 25.000 C 260.987 24.890,261.400 24.741,261.583 24.670 C 261.767 24.598,262.254 24.411,262.667 24.253 C 263.079 24.095,263.547 23.898,263.706 23.816 C 263.865 23.734,264.142 23.667,264.321 23.667 C 264.500 23.667,264.693 23.592,264.750 23.500 C 264.982 23.125,268.124 23.300,268.407 23.704 M340.788 27.807 C 338.235 29.490,337.086 36.052,338.361 41.667 C 338.616 42.786,339.250 44.459,339.499 44.667 C 339.554 44.712,339.766 44.989,339.970 45.282 C 341.608 47.627,344.392 46.137,345.477 42.333 C 347.598 34.897,344.516 25.348,340.788 27.807 M237.250 29.478 C 238.479 29.699,239.776 30.054,239.936 30.214 C 240.002 30.280,240.183 30.333,240.338 30.333 C 241.926 30.333,245.105 33.323,246.212 35.858 C 247.159 38.025,247.636 42.513,247.006 43.333 L 246.686 43.750 241.926 43.805 C 236.563 43.867,236.987 43.732,237.394 45.250 C 238.245 48.426,240.225 49.809,242.167 48.583 C 242.659 48.272,243.054 48.167,243.723 48.167 L 244.619 48.167 245.224 49.077 C 245.556 49.577,245.786 50.096,245.735 50.230 C 245.636 50.487,244.448 51.333,244.184 51.333 C 244.098 51.333,244.003 51.393,243.972 51.467 C 243.832 51.804,240.567 53.160,239.885 53.164 C 239.684 53.166,239.473 53.242,239.417 53.333 C 239.360 53.425,238.985 53.500,238.583 53.500 C 238.182 53.500,237.814 53.564,237.765 53.642 C 237.690 53.764,234.542 54.041,233.333 54.032 C 231.969 54.021,229.143 53.764,229.069 53.643 C 229.020 53.564,228.689 53.500,228.333 53.500 C 227.977 53.500,227.640 53.425,227.583 53.333 C 227.527 53.242,227.296 53.167,227.071 53.167 C 226.846 53.167,226.532 53.101,226.373 53.020 C 226.214 52.939,225.746 52.711,225.333 52.514 C 223.760 51.760,222.459 50.853,221.726 50.000 C 221.529 49.771,221.202 49.396,221.001 49.167 C 220.538 48.641,219.333 46.154,219.333 45.723 C 219.333 45.545,219.267 45.329,219.186 45.242 C 219.104 45.155,218.954 44.256,218.851 43.245 C 218.236 37.206,220.811 32.540,225.875 30.517 C 227.206 29.985,228.995 29.503,229.692 29.488 C 229.999 29.482,230.400 29.410,230.583 29.328 C 231.016 29.134,235.954 29.246,237.250 29.478 M169.429 29.772 C 169.880 29.922,170.321 30.109,170.408 30.189 C 170.612 30.374,171.386 30.376,171.592 30.191 C 172.497 29.381,177.667 29.378,177.667 30.189 C 177.667 30.268,177.745 30.333,177.841 30.333 C 178.298 30.333,179.341 31.757,179.725 32.905 C 180.132 34.122,180.144 52.498,179.738 52.905 C 179.529 53.114,179.072 53.167,177.480 53.167 L 175.483 53.167 175.241 52.589 C 175.041 52.108,175.000 50.485,174.999 42.964 L 174.998 33.917 174.611 33.433 C 174.294 33.036,174.144 32.970,173.773 33.063 C 172.772 33.314,172.810 32.902,172.827 43.094 C 172.845 54.292,173.122 53.167,170.344 53.167 C 167.643 53.167,167.932 54.306,167.833 43.266 C 167.763 35.335,167.712 33.859,167.500 33.535 C 167.163 33.021,166.623 32.912,166.103 33.252 L 165.675 33.533 165.629 42.308 C 165.566 54.369,166.570 53.166,156.583 53.150 C 146.530 53.135,147.583 54.479,147.583 41.667 L 147.583 32.083 147.980 31.392 C 148.384 30.686,148.699 30.457,149.583 30.230 C 150.220 30.066,162.346 30.079,163.292 30.244 C 163.682 30.313,164.132 30.310,164.292 30.239 C 165.979 29.485,168.007 29.301,169.429 29.772 M205.917 29.920 C 207.028 30.378,207.209 30.405,207.627 30.174 C 209.787 28.985,213.498 29.449,214.866 31.080 C 216.097 32.548,216.167 33.208,216.167 43.448 C 216.167 54.285,216.455 53.167,213.661 53.167 C 210.980 53.167,211.265 54.289,211.167 43.350 C 211.069 32.443,211.012 32.138,209.317 33.345 L 208.833 33.689 208.833 43.123 C 208.833 54.305,209.104 53.167,206.446 53.167 C 203.721 53.167,204.000 54.240,203.999 43.766 C 203.998 33.663,203.921 33.000,202.753 33.000 C 201.670 33.000,201.688 32.839,201.633 42.585 C 201.576 52.683,201.668 52.089,200.023 52.958 C 199.411 53.282,186.086 53.255,185.306 52.929 C 184.482 52.585,183.892 51.922,183.773 51.207 C 183.637 50.381,183.640 32.934,183.777 32.106 C 183.913 31.280,184.818 30.333,185.472 30.333 C 185.726 30.333,186.010 30.257,186.104 30.163 C 186.299 29.968,198.360 30.039,199.344 30.241 C 199.785 30.331,200.255 30.254,201.177 29.939 C 202.875 29.358,204.537 29.351,205.917 29.920 M75.917 30.167 C 75.973 30.258,76.168 30.333,76.349 30.333 C 76.787 30.333,77.407 30.753,77.780 31.303 C 78.060 31.716,78.090 32.384,78.167 40.167 C 78.261 49.676,78.243 49.541,79.388 49.636 C 80.566 49.733,80.500 50.303,80.500 39.986 L 80.500 30.680 80.865 30.340 C 81.461 29.784,84.516 29.835,85.091 30.409 L 85.500 30.818 85.500 41.622 C 85.500 51.131,85.469 52.470,85.241 52.796 C 84.805 53.418,81.169 53.360,80.706 52.724 L 80.383 52.282 79.483 52.572 C 77.819 53.110,77.562 53.167,76.813 53.167 C 76.403 53.167,75.981 53.252,75.876 53.357 C 75.593 53.641,66.256 53.656,65.973 53.373 C 65.860 53.260,65.556 53.167,65.298 53.167 C 65.040 53.167,64.699 53.100,64.539 53.018 C 64.380 52.937,63.956 52.731,63.596 52.560 C 62.530 52.054,61.270 50.702,60.817 49.578 L 60.417 48.583 60.372 40.167 C 60.325 31.095,60.364 30.667,61.248 30.667 C 61.386 30.667,61.500 30.592,61.500 30.500 C 61.500 30.408,61.721 30.333,61.990 30.333 C 62.260 30.333,62.527 30.258,62.583 30.167 C 62.649 30.060,65.054 30.000,69.250 30.000 C 73.446 30.000,75.851 30.060,75.917 30.167 M136.750 30.284 C 140.199 30.976,142.406 32.815,143.511 35.917 C 143.923 37.073,144.000 38.461,143.999 44.721 C 143.999 52.333,144.026 52.173,142.620 52.833 C 141.798 53.220,125.288 53.263,123.667 52.882 C 122.725 52.662,121.798 52.332,121.592 52.144 C 121.505 52.065,121.298 52.000,121.133 52.000 C 120.968 52.000,120.833 51.943,120.833 51.874 C 120.833 51.805,120.604 51.646,120.323 51.522 C 115.521 49.396,116.342 41.195,121.583 38.927 C 121.950 38.768,122.380 38.570,122.539 38.486 C 122.699 38.402,123.050 38.333,123.321 38.333 C 123.592 38.333,123.860 38.258,123.917 38.167 C 123.973 38.075,124.375 38.000,124.810 38.000 C 125.855 38.000,126.000 37.817,126.000 36.491 C 126.000 34.913,125.560 34.271,124.430 34.198 C 123.984 34.170,123.541 34.226,123.443 34.323 C 123.346 34.420,123.172 34.500,123.057 34.500 C 122.942 34.500,122.466 34.725,122.000 35.000 C 120.898 35.650,119.888 35.685,119.372 35.092 C 118.076 33.602,118.326 32.950,120.583 31.925 C 120.950 31.759,121.545 31.483,121.906 31.311 C 122.267 31.140,122.732 31.000,122.938 31.000 C 123.145 31.000,123.355 30.933,123.405 30.852 C 123.499 30.701,124.152 30.558,125.500 30.393 C 125.912 30.342,126.323 30.231,126.413 30.146 C 126.627 29.942,135.647 30.063,136.750 30.284 M239.357 35.148 C 238.866 35.280,237.833 36.310,237.833 36.667 C 237.833 36.813,237.769 37.005,237.691 37.092 C 237.462 37.347,237.170 38.677,237.125 39.667 L 237.083 40.583 239.750 40.583 L 242.417 40.583 242.468 39.875 C 242.657 37.265,240.976 34.710,239.357 35.148 M124.600 41.412 C 121.695 42.606,120.890 46.367,123.038 48.713 C 123.351 49.054,123.728 49.333,123.877 49.333 C 124.025 49.333,124.188 49.400,124.238 49.481 C 124.288 49.562,124.536 49.667,124.790 49.715 C 125.043 49.763,125.420 49.856,125.628 49.921 L 126.006 50.040 125.961 45.576 C 125.911 40.588,125.994 40.840,124.600 41.412 " stroke="none" fill="#fbfbfb" fill-rule="evenodd"></path><path id="path2" d="M90.061 17.129 C 89.320 17.729,89.333 17.397,89.333 34.747 C 89.333 52.396,89.310 51.859,90.093 52.508 C 90.247 52.636,90.177 52.451,89.937 52.097 L 89.500 51.453 89.500 34.739 L 89.500 18.024 90.061 17.429 C 90.655 16.799,90.655 16.647,90.061 17.129 M332.667 20.000 C 332.106 20.179,332.712 20.179,333.417 20.000 C 333.866 19.886,333.874 19.872,333.500 19.870 C 333.271 19.868,332.896 19.927,332.667 20.000 M366.333 20.000 C 366.003 20.106,365.986 20.133,366.250 20.133 C 366.433 20.133,366.771 20.073,367.000 20.000 C 367.330 19.894,367.347 19.867,367.083 19.867 C 366.900 19.867,366.563 19.927,366.333 20.000 M328.768 20.773 C 327.881 21.093,326.975 21.531,327.048 21.604 C 327.082 21.637,327.418 21.515,327.796 21.332 C 328.175 21.149,328.581 20.997,328.700 20.994 C 328.819 20.991,329.104 20.881,329.333 20.750 C 329.849 20.455,329.623 20.464,328.768 20.773 M20.856 21.203 C 19.394 21.911,19.501 20.619,19.501 37.516 L 19.500 52.448 19.859 52.766 L 20.218 53.083 19.939 52.649 C 19.538 52.025,19.595 22.651,19.998 22.042 C 20.574 21.173,21.058 21.090,26.083 20.995 L 30.750 20.906 26.167 20.878 C 21.809 20.851,21.547 20.867,20.856 21.203 M44.833 21.108 C 44.319 21.315,44.309 21.329,44.750 21.227 C 45.025 21.163,47.163 21.065,49.500 21.008 L 53.750 20.906 49.583 20.889 C 46.358 20.877,45.285 20.926,44.833 21.108 M292.843 21.099 C 292.103 21.331,291.579 21.667,291.957 21.667 C 292.061 21.667,292.188 21.601,292.238 21.520 C 292.446 21.182,293.565 21.105,299.667 21.009 L 306.083 20.907 299.833 20.887 C 294.911 20.871,293.426 20.916,292.843 21.099 M312.500 22.027 C 309.697 24.681,308.826 25.548,308.893 25.615 C 308.932 25.654,310.028 24.650,311.328 23.385 C 312.629 22.119,313.819 21.032,313.972 20.970 C 314.191 20.881,314.197 20.855,314.000 20.850 C 313.862 20.846,313.188 21.375,312.500 22.027 M361.333 21.258 C 360.921 21.472,360.675 21.651,360.787 21.657 C 360.898 21.662,361.243 21.524,361.553 21.350 C 361.863 21.177,362.259 20.998,362.433 20.953 C 362.729 20.877,362.728 20.872,362.417 20.870 C 362.233 20.870,361.746 21.044,361.333 21.258 M43.729 21.548 C 42.945 21.995,42.606 22.531,40.336 26.917 C 38.586 30.296,38.345 30.694,38.127 30.559 C 38.016 30.490,37.998 30.528,38.078 30.658 C 38.351 31.099,38.721 30.494,41.438 25.172 C 42.217 23.646,42.834 22.673,43.367 22.131 C 43.798 21.692,44.136 21.336,44.117 21.339 C 44.099 21.342,43.924 21.436,43.729 21.548 M291.173 22.350 C 290.774 23.230,290.635 50.190,291.023 51.350 C 291.225 51.952,291.784 52.667,292.053 52.667 C 292.142 52.667,292.025 52.490,291.792 52.274 C 290.994 51.535,290.973 51.103,291.030 36.500 C 291.079 23.940,291.105 22.874,291.376 22.348 C 291.537 22.035,291.632 21.743,291.587 21.698 C 291.542 21.654,291.356 21.947,291.173 22.350 M325.931 22.175 C 323.112 23.962,320.586 28.020,320.229 31.333 C 320.195 31.654,320.383 31.146,320.648 30.204 C 321.582 26.879,323.262 24.267,325.450 22.735 C 326.073 22.299,326.655 21.880,326.742 21.804 C 327.073 21.516,326.702 21.686,325.931 22.175 M360.000 22.008 L 359.583 22.342 360.042 22.144 C 360.294 22.036,360.500 21.884,360.500 21.807 C 360.500 21.616,360.477 21.626,360.000 22.008 M358.665 22.893 C 357.077 24.059,355.287 26.526,354.494 28.639 C 354.037 29.857,353.497 31.913,353.513 32.372 C 353.520 32.580,353.707 32.037,353.928 31.167 C 354.904 27.322,356.536 24.654,359.099 22.718 C 359.366 22.516,359.546 22.350,359.500 22.347 C 359.454 22.344,359.079 22.590,358.665 22.893 M265.875 23.455 C 266.219 23.491,266.781 23.491,267.125 23.455 C 267.469 23.419,267.188 23.389,266.500 23.389 C 265.813 23.389,265.531 23.419,265.875 23.455 M261.917 24.667 C 261.860 24.758,261.649 24.842,261.448 24.853 C 261.218 24.865,261.180 24.898,261.344 24.942 C 261.487 24.981,261.825 24.898,262.094 24.757 C 262.398 24.599,262.477 24.502,262.302 24.501 C 262.146 24.500,261.973 24.575,261.917 24.667 M377.074 25.089 C 377.254 25.225,377.695 25.321,378.074 25.305 L 378.750 25.277 378.083 25.211 C 377.717 25.174,377.345 25.074,377.258 24.989 C 377.171 24.903,377.021 24.836,376.925 24.839 C 376.829 24.842,376.896 24.954,377.074 25.089 M256.833 26.498 C 256.696 26.577,256.283 26.756,255.917 26.896 C 255.550 27.035,255.382 27.153,255.544 27.158 C 255.706 27.163,255.968 27.098,256.127 27.015 C 256.286 26.932,256.679 26.746,257.000 26.602 C 257.321 26.459,257.471 26.344,257.333 26.347 C 257.196 26.350,256.971 26.418,256.833 26.498 M342.333 27.353 C 343.708 27.680,344.705 28.759,345.427 30.703 C 345.641 31.279,345.820 31.622,345.825 31.466 C 345.874 29.852,343.853 27.437,342.303 27.258 L 341.583 27.175 342.333 27.353 M252.250 28.263 C 251.408 28.676,251.505 28.667,252.792 28.217 C 253.181 28.080,253.500 27.938,253.500 27.901 C 253.500 27.744,253.030 27.880,252.250 28.263 M251.058 28.864 C 250.880 29.140,250.705 34.834,250.875 34.834 C 250.944 34.833,251.000 33.628,251.000 32.156 C 251.000 30.556,251.073 29.343,251.180 29.141 C 251.383 28.763,251.278 28.524,251.058 28.864 M230.500 29.500 C 230.169 29.714,230.585 29.714,231.083 29.500 L 231.417 29.357 231.083 29.348 C 230.900 29.343,230.637 29.411,230.500 29.500 M107.333 29.833 C 107.002 30.047,107.418 30.047,107.917 29.833 L 108.250 29.690 107.917 29.681 C 107.733 29.676,107.471 29.744,107.333 29.833 M165.833 29.841 C 165.651 29.964,165.718 29.980,166.083 29.898 C 166.696 29.761,166.829 29.666,166.403 29.669 C 166.227 29.671,165.971 29.748,165.833 29.841 M173.000 29.833 C 172.669 30.047,173.085 30.047,173.583 29.833 L 173.917 29.690 173.583 29.681 C 173.400 29.676,173.137 29.744,173.000 29.833 M201.917 29.833 C 201.707 29.924,201.676 29.977,201.833 29.977 C 201.971 29.977,202.233 29.912,202.417 29.833 C 202.627 29.743,202.658 29.690,202.500 29.690 C 202.362 29.690,202.100 29.755,201.917 29.833 M209.167 29.841 C 208.984 29.964,209.052 29.980,209.417 29.898 C 210.029 29.761,210.163 29.666,209.736 29.669 C 209.560 29.671,209.304 29.748,209.167 29.841 M63.130 30.137 C 62.865 30.241,70.806 30.225,73.667 30.115 C 74.354 30.089,72.329 30.057,69.167 30.045 C 66.004 30.033,63.288 30.074,63.130 30.137 M81.417 30.192 C 80.652 30.611,80.667 30.413,80.664 40.074 C 80.662 49.199,80.645 49.530,80.167 49.712 C 79.947 49.795,79.948 49.809,80.171 49.820 C 80.998 49.863,81.000 49.842,81.000 39.849 C 81.000 31.141,81.019 30.527,81.292 30.403 C 81.452 30.330,82.146 30.222,82.833 30.163 L 84.083 30.055 82.917 30.033 C 82.275 30.020,81.600 30.092,81.417 30.192 M126.890 30.128 C 126.784 30.195,128.134 30.230,129.890 30.206 C 135.040 30.136,135.551 30.068,131.167 30.035 C 128.921 30.019,126.996 30.060,126.890 30.128 M150.463 30.137 C 150.199 30.241,157.620 30.225,160.500 30.115 C 161.188 30.089,159.275 30.057,156.250 30.045 C 153.225 30.033,150.621 30.074,150.463 30.137 M171.542 30.264 C 170.794 30.591,170.858 30.717,171.625 30.429 C 171.969 30.299,172.362 30.156,172.500 30.110 C 172.667 30.054,172.639 30.026,172.417 30.027 C 172.233 30.027,171.840 30.134,171.542 30.264 M186.630 30.137 C 186.366 30.241,193.787 30.225,196.667 30.115 C 197.354 30.089,195.442 30.057,192.417 30.045 C 189.392 30.033,186.788 30.074,186.630 30.137 M200.333 30.356 C 199.693 30.707,200.168 30.630,201.073 30.235 C 201.431 30.080,201.484 30.016,201.250 30.025 C 201.067 30.031,200.654 30.180,200.333 30.356 M207.925 30.154 C 207.872 30.238,207.587 30.362,207.290 30.429 C 206.993 30.495,206.833 30.579,206.935 30.615 C 207.037 30.650,207.487 30.530,207.935 30.349 C 208.464 30.134,208.622 30.015,208.385 30.009 C 208.184 30.004,207.977 30.069,207.925 30.154 M226.607 30.339 C 225.714 30.678,225.480 30.833,225.861 30.833 C 225.999 30.833,226.167 30.778,226.234 30.710 C 226.302 30.642,226.746 30.460,227.221 30.304 C 227.695 30.149,227.933 30.024,227.750 30.027 C 227.567 30.030,227.052 30.170,226.607 30.339 M61.167 31.000 C 60.652 31.515,60.503 31.790,60.512 32.208 C 60.523 32.718,60.537 32.704,60.764 31.968 C 61.016 31.147,61.590 30.595,62.336 30.456 C 62.740 30.381,62.739 30.378,62.292 30.356 C 61.961 30.340,61.647 30.520,61.167 31.000 M125.120 30.436 C 125.063 30.492,124.769 30.603,124.467 30.681 L 123.917 30.824 124.500 30.737 C 124.821 30.690,125.421 30.589,125.833 30.514 L 126.583 30.378 125.903 30.356 C 125.528 30.343,125.176 30.380,125.120 30.436 M136.208 30.448 C 136.369 30.490,136.631 30.490,136.792 30.448 C 136.952 30.406,136.821 30.372,136.500 30.372 C 136.179 30.372,136.048 30.406,136.208 30.448 M148.569 30.898 L 147.917 31.462 147.911 41.356 L 147.905 51.250 147.994 41.500 C 148.096 30.333,148.019 30.822,149.750 30.445 C 150.009 30.388,149.987 30.368,149.653 30.353 C 149.384 30.341,148.978 30.545,148.569 30.898 M163.833 30.500 C 163.611 30.644,163.611 30.662,163.833 30.662 C 163.971 30.662,164.196 30.589,164.333 30.500 C 164.556 30.356,164.556 30.338,164.333 30.338 C 164.196 30.338,163.971 30.411,163.833 30.500 M185.074 30.578 C 184.896 30.713,184.829 30.825,184.925 30.828 C 185.021 30.831,185.171 30.765,185.258 30.681 C 185.345 30.597,185.604 30.495,185.833 30.453 L 186.250 30.379 185.824 30.356 C 185.589 30.344,185.251 30.443,185.074 30.578 M123.250 31.000 C 122.929 31.138,122.930 31.144,123.282 31.155 C 123.483 31.161,123.693 31.092,123.750 31.000 C 123.872 30.803,123.709 30.803,123.250 31.000 M184.173 31.517 C 183.789 32.364,183.642 50.056,184.009 51.376 C 184.182 51.998,184.734 52.667,185.073 52.666 C 185.170 52.665,185.049 52.497,184.802 52.291 C 184.005 51.624,183.979 51.253,184.033 41.333 C 184.079 32.903,184.109 32.033,184.376 31.515 C 184.537 31.202,184.632 30.909,184.587 30.865 C 184.542 30.820,184.356 31.114,184.173 31.517 M223.734 31.805 C 217.452 35.877,217.274 46.873,223.418 51.257 C 223.991 51.666,224.523 52.000,224.602 52.000 C 224.681 52.000,224.372 51.747,223.914 51.439 C 222.335 50.372,221.234 49.111,220.334 47.338 C 218.670 44.061,218.799 38.327,220.600 35.473 C 220.820 35.125,221.000 34.775,221.000 34.695 C 221.000 34.400,223.114 32.362,223.960 31.842 C 224.727 31.370,224.973 31.167,224.776 31.167 C 224.744 31.167,224.275 31.454,223.734 31.805 M120.250 32.246 C 119.379 32.782,119.589 32.787,120.525 32.252 C 120.924 32.024,121.175 31.837,121.083 31.836 C 120.992 31.836,120.617 32.020,120.250 32.246 M345.852 32.167 C 345.879 32.950,346.131 33.519,346.148 32.833 C 346.155 32.512,346.089 32.137,346.000 32.000 C 345.873 31.803,345.841 31.839,345.852 32.167 M319.958 32.583 C 319.891 32.950,319.845 33.587,319.855 34.000 C 319.874 34.733,319.877 34.728,320.023 33.750 C 320.204 32.543,320.147 31.539,319.958 32.583 M310.519 32.584 C 311.322 33.504,311.333 33.651,311.339 43.317 C 311.343 51.410,311.373 52.454,311.611 52.750 L 311.878 53.083 311.731 52.750 C 311.650 52.567,311.546 48.179,311.500 43.000 C 311.411 32.984,311.437 33.274,310.557 32.501 L 310.083 32.085 310.519 32.584 M119.030 33.008 C 118.186 33.795,119.446 35.523,120.691 35.287 C 120.976 35.232,120.924 35.205,120.500 35.187 C 119.831 35.158,119.664 35.062,119.375 34.542 C 119.260 34.335,119.073 34.012,118.958 33.822 C 118.778 33.524,118.803 33.435,119.149 33.152 C 119.368 32.972,119.512 32.790,119.470 32.748 C 119.427 32.705,119.229 32.822,119.030 33.008 M108.198 32.954 C 109.497 33.091,109.500 33.113,109.500 43.437 C 109.500 51.395,109.530 52.474,109.764 52.760 C 110.023 53.079,110.025 53.078,109.889 52.750 C 109.812 52.567,109.712 48.254,109.667 43.167 L 109.583 33.917 109.197 33.375 C 108.871 32.918,108.714 32.838,108.197 32.861 L 107.583 32.889 108.198 32.954 M166.696 32.948 C 167.435 33.033,167.658 33.277,167.934 34.301 C 168.117 34.984,168.146 35.018,168.155 34.566 C 168.175 33.687,167.526 32.920,166.745 32.897 L 166.083 32.877 166.696 32.948 M173.983 32.980 C 175.291 33.218,175.244 32.848,175.299 43.331 C 175.344 51.663,175.377 52.662,175.618 52.861 C 175.859 53.060,175.867 53.045,175.694 52.719 C 175.553 52.456,175.500 49.903,175.500 43.452 C 175.500 33.094,175.459 32.801,174.005 32.855 L 173.417 32.877 173.983 32.980 M202.816 32.980 C 204.120 33.218,204.073 32.853,204.167 43.337 C 204.233 50.718,204.295 52.695,204.469 52.867 C 204.649 53.045,204.657 53.001,204.510 52.614 C 204.394 52.305,204.333 49.181,204.332 43.447 C 204.331 33.207,204.271 32.795,202.792 32.855 L 202.250 32.877 202.816 32.980 M210.083 32.976 C 211.341 33.179,211.315 32.968,211.331 43.333 C 211.342 51.403,211.374 52.454,211.611 52.750 L 211.878 53.083 211.731 52.750 C 211.650 52.567,211.546 48.241,211.500 43.137 C 211.405 32.560,211.459 32.944,210.067 32.892 L 209.417 32.868 210.083 32.976 M353.275 33.708 C 353.136 34.864,353.155 39.574,353.301 40.399 C 353.365 40.756,353.417 39.200,353.417 36.941 C 353.417 32.386,353.421 32.489,353.275 33.708 M346.214 36.917 C 346.214 39.207,346.257 40.100,346.340 39.500 C 346.410 38.996,346.467 37.833,346.467 36.917 C 346.467 36.000,346.410 34.837,346.340 34.333 C 346.257 33.733,346.214 34.626,346.214 36.917 M125.542 34.421 C 126.225 35.103,126.581 37.111,126.125 37.710 C 126.003 37.871,125.607 38.010,125.167 38.046 L 124.417 38.108 125.196 38.138 C 126.243 38.177,126.500 37.900,126.500 36.733 C 126.500 35.495,125.835 34.000,125.285 34.000 C 125.195 34.000,125.310 34.189,125.542 34.421 M240.061 34.918 C 240.323 35.055,240.623 35.166,240.727 35.166 C 240.831 35.165,240.702 35.053,240.439 34.916 C 240.177 34.779,239.877 34.667,239.773 34.668 C 239.669 34.668,239.798 34.781,240.061 34.918 M248.101 35.097 C 247.706 36.126,248.151 37.667,248.842 37.667 C 248.978 37.667,248.915 37.555,248.691 37.398 C 248.343 37.155,248.313 37.023,248.362 35.981 C 248.415 34.877,248.315 34.540,248.101 35.097 M319.768 37.833 C 319.804 39.438,319.907 41.012,319.996 41.333 C 320.125 41.796,320.137 41.693,320.054 40.833 C 319.996 40.237,319.893 38.662,319.825 37.333 L 319.702 34.917 319.768 37.833 M241.007 35.216 C 241.003 35.288,241.189 35.551,241.420 35.799 C 242.076 36.505,242.488 37.822,242.539 39.373 L 242.583 40.750 239.750 40.839 L 236.917 40.929 239.783 40.964 C 242.207 40.995,242.672 40.961,242.793 40.745 C 242.982 40.407,242.752 38.340,242.402 37.226 C 242.163 36.467,241.027 34.830,241.007 35.216 M250.919 43.083 C 250.959 50.068,251.410 51.523,253.917 52.761 L 254.417 53.008 254.000 52.712 C 252.506 51.653,251.709 50.489,251.284 48.750 C 251.195 48.383,251.069 45.758,251.005 42.917 L 250.889 37.750 250.919 43.083 M123.583 38.333 L 123.083 38.461 123.615 38.480 C 123.908 38.491,124.193 38.425,124.250 38.333 C 124.364 38.149,124.308 38.149,123.583 38.333 M119.450 40.542 C 117.373 42.597,116.768 45.561,117.843 48.412 C 118.170 49.278,119.747 51.309,119.942 51.114 C 119.973 51.083,119.667 50.712,119.262 50.289 C 118.013 48.986,117.590 47.767,117.601 45.501 C 117.612 43.028,118.477 41.303,120.417 39.884 C 120.692 39.683,120.824 39.514,120.710 39.509 C 120.596 39.504,120.029 39.969,119.450 40.542 M345.959 41.000 C 345.763 41.674,345.798 42.162,346.016 41.787 C 346.110 41.625,346.164 41.287,346.135 41.037 L 346.081 40.583 345.959 41.000 M125.750 40.980 L 126.250 41.086 126.294 45.490 C 126.329 48.896,126.291 49.927,126.128 50.043 C 125.969 50.155,125.979 50.175,126.167 50.124 C 126.379 50.066,126.423 49.402,126.461 45.673 C 126.509 40.981,126.483 40.817,125.688 40.853 C 125.266 40.872,125.268 40.877,125.750 40.980 M38.417 41.333 C 38.360 41.425,38.388 41.500,38.479 41.500 C 38.584 41.500,38.664 43.328,38.697 46.466 C 38.745 50.917,38.781 51.480,39.051 51.891 C 39.350 52.347,40.266 53.005,40.583 52.992 C 40.675 52.988,40.470 52.837,40.128 52.657 C 38.955 52.038,38.923 51.872,38.866 46.208 C 38.820 41.649,38.742 40.806,38.417 41.333 M353.512 41.456 C 353.505 41.661,353.586 42.186,353.692 42.623 C 354.128 44.428,354.978 46.612,354.993 45.968 C 354.997 45.813,354.934 45.646,354.853 45.596 C 354.773 45.546,354.663 45.335,354.611 45.127 C 354.064 42.969,353.521 41.156,353.512 41.456 M24.936 41.592 C 24.882 41.734,24.906 41.808,24.991 41.756 C 25.134 41.667,25.552 42.335,28.010 46.583 C 29.903 49.856,30.265 50.185,31.917 50.135 L 32.917 50.105 32.000 50.047 C 31.496 50.014,30.857 49.883,30.581 49.755 C 29.912 49.444,29.609 49.030,28.203 46.500 C 27.973 46.087,27.659 45.563,27.503 45.333 C 27.348 45.104,27.173 44.804,27.114 44.667 C 27.055 44.529,26.837 44.142,26.629 43.807 C 26.420 43.472,26.006 42.778,25.707 42.266 C 25.111 41.242,25.081 41.216,24.936 41.592 M320.186 42.417 C 320.178 42.692,320.244 43.029,320.333 43.167 C 320.537 43.482,320.537 42.971,320.333 42.333 C 320.203 41.925,320.200 41.927,320.186 42.417 M345.667 42.299 C 345.667 42.846,344.872 44.478,344.210 45.290 C 343.795 45.800,343.613 46.107,343.805 45.972 C 344.708 45.340,346.151 42.595,345.777 42.221 C 345.716 42.161,345.667 42.196,345.667 42.299 M239.375 43.625 C 240.635 43.653,242.698 43.653,243.958 43.625 C 245.219 43.596,244.188 43.573,241.667 43.573 C 239.146 43.573,238.115 43.596,239.375 43.625 M320.507 43.729 C 320.471 45.431,324.931 52.125,325.632 51.423 C 325.686 51.370,325.555 51.203,325.340 51.053 C 323.978 50.099,322.681 48.495,321.837 46.722 C 321.539 46.096,321.228 45.453,321.147 45.294 C 321.066 45.135,321.000 44.900,321.000 44.771 C 321.000 44.395,320.514 43.369,320.507 43.729 M355.010 46.366 C 354.927 47.348,358.387 51.107,360.311 52.125 C 361.098 52.542,360.890 52.318,359.871 51.652 C 357.902 50.366,357.034 49.416,355.218 46.562 C 355.109 46.390,355.015 46.302,355.010 46.366 M60.518 47.264 C 60.496 48.101,61.053 49.851,61.597 50.650 C 62.146 51.459,62.103 51.202,61.496 50.043 C 61.218 49.513,60.889 48.519,60.764 47.832 C 60.576 46.803,60.533 46.703,60.518 47.264 M242.367 48.618 C 242.156 48.765,241.594 48.986,241.117 49.109 C 240.273 49.327,240.270 49.331,240.974 49.245 C 241.634 49.165,243.000 48.605,243.000 48.413 C 243.000 48.268,242.755 48.347,242.367 48.618 M376.555 49.001 C 376.264 49.172,375.739 49.341,375.388 49.378 L 374.750 49.444 375.417 49.464 C 375.835 49.477,376.363 49.335,376.833 49.083 C 377.246 48.862,377.471 48.684,377.333 48.686 C 377.196 48.688,376.846 48.830,376.555 49.001 M270.333 49.267 C 270.072 49.428,270.041 49.477,270.250 49.400 C 270.433 49.333,270.996 49.226,271.500 49.163 L 272.417 49.049 271.583 49.030 C 271.096 49.020,270.577 49.118,270.333 49.267 M62.167 51.304 C 62.167 51.377,62.373 51.587,62.625 51.771 C 63.303 52.265,63.646 52.412,63.167 52.004 C 62.308 51.272,62.167 51.173,62.167 51.304 M148.011 51.500 C 148.011 51.637,148.121 51.896,148.255 52.074 C 148.567 52.485,148.563 52.214,148.250 51.667 C 148.112 51.425,148.012 51.355,148.011 51.500 M120.667 51.565 C 120.667 51.652,122.128 52.336,122.290 52.325 C 122.403 52.317,120.847 51.500,120.719 51.500 C 120.690 51.500,120.667 51.529,120.667 51.565 M325.833 51.567 C 325.833 51.654,326.984 52.333,327.132 52.333 C 327.193 52.333,326.968 52.146,326.631 51.917 C 326.040 51.515,325.833 51.425,325.833 51.567 M80.620 52.102 C 80.499 52.223,80.977 53.000,81.173 53.000 C 81.247 53.000,81.196 52.775,81.058 52.500 C 80.790 51.962,80.774 51.948,80.620 52.102 M168.167 52.542 C 168.167 52.691,168.247 52.863,168.344 52.924 C 168.630 53.100,168.658 52.942,168.403 52.593 C 168.205 52.323,168.167 52.314,168.167 52.542 M124.250 52.833 C 124.748 53.047,125.165 53.047,124.833 52.833 C 124.696 52.744,124.433 52.676,124.250 52.681 L 123.917 52.690 124.250 52.833 M66.083 53.241 C 66.510 53.403,67.230 53.485,68.083 53.468 L 69.417 53.442 67.917 53.324 C 67.092 53.259,66.192 53.157,65.917 53.096 C 65.570 53.020,65.622 53.065,66.083 53.241 M227.583 53.205 C 228.074 53.493,229.385 53.695,231.083 53.744 L 232.583 53.788 231.083 53.654 C 229.014 53.470,228.111 53.325,227.925 53.150 C 227.838 53.067,227.650 53.002,227.508 53.005 C 227.315 53.009,227.335 53.060,227.583 53.205 M255.083 53.225 C 255.988 53.653,257.148 53.834,258.794 53.804 L 260.417 53.775 258.500 53.655 C 256.753 53.545,255.837 53.403,254.917 53.098 C 254.733 53.038,254.808 53.094,255.083 53.225 M363.051 53.267 C 363.308 53.406,363.721 53.490,363.968 53.452 C 364.382 53.389,364.375 53.381,363.885 53.358 C 363.592 53.345,363.307 53.258,363.250 53.167 C 363.193 53.075,363.020 53.003,362.865 53.007 C 362.677 53.011,362.738 53.097,363.051 53.267 M72.708 53.456 C 73.144 53.490,73.856 53.490,74.292 53.456 C 74.727 53.422,74.371 53.393,73.500 53.393 C 72.629 53.393,72.273 53.422,72.708 53.456 M237.875 53.448 C 238.035 53.490,238.298 53.490,238.458 53.448 C 238.619 53.406,238.487 53.372,238.167 53.372 C 237.846 53.372,237.715 53.406,237.875 53.448 M266.294 53.451 C 266.501 53.491,266.801 53.490,266.960 53.448 C 267.120 53.406,266.950 53.374,266.583 53.375 C 266.217 53.377,266.086 53.411,266.294 53.451 M329.681 53.393 C 329.719 53.426,330.050 53.499,330.417 53.555 C 330.871 53.625,331.004 53.606,330.833 53.498 C 330.606 53.353,329.519 53.254,329.681 53.393 M364.667 53.669 C 364.804 53.757,365.123 53.829,365.375 53.831 C 365.627 53.832,365.833 53.852,365.833 53.875 C 365.833 53.898,365.716 54.442,365.573 55.083 C 365.017 57.582,365.080 58.184,365.895 58.154 C 366.197 58.142,366.181 58.115,365.792 57.973 C 365.288 57.789,365.245 57.572,365.491 56.461 C 366.126 53.589,366.152 53.771,365.083 53.610 C 364.629 53.541,364.496 53.560,364.667 53.669 M234.958 53.789 C 235.348 53.824,235.985 53.824,236.375 53.789 C 236.765 53.754,236.446 53.725,235.667 53.725 C 234.887 53.725,234.569 53.754,234.958 53.789 M263.047 53.789 C 263.485 53.824,264.160 53.823,264.547 53.788 C 264.934 53.754,264.575 53.725,263.750 53.726 C 262.925 53.726,262.609 53.755,263.047 53.789 M331.625 53.787 C 331.923 53.824,332.410 53.824,332.708 53.787 C 333.006 53.750,332.762 53.720,332.167 53.720 C 331.571 53.720,331.327 53.750,331.625 53.787 M337.708 53.786 C 337.960 53.824,338.373 53.824,338.625 53.786 C 338.877 53.748,338.671 53.717,338.167 53.717 C 337.662 53.717,337.456 53.748,337.708 53.786 M371.128 53.787 C 371.428 53.825,371.878 53.824,372.128 53.786 C 372.378 53.748,372.133 53.717,371.583 53.718 C 371.033 53.719,370.828 53.750,371.128 53.787 M333.667 54.005 C 334.081 54.133,336.119 54.222,335.986 54.106 C 335.948 54.073,335.317 54.007,334.583 53.961 C 333.850 53.915,333.438 53.934,333.667 54.005 M369.067 58.851 C 369.313 59.043,369.617 59.437,369.743 59.726 C 369.935 60.163,369.975 60.190,369.986 59.888 C 370.000 59.522,369.125 58.500,368.798 58.500 C 368.701 58.500,368.822 58.658,369.067 58.851 M369.754 61.149 C 369.636 61.686,369.328 62.015,368.583 62.404 C 368.261 62.572,368.186 62.665,368.373 62.666 C 368.924 62.668,370.000 61.601,370.000 61.052 C 370.000 60.522,369.881 60.569,369.754 61.149 M361.944 62.278 C 361.312 62.910,362.099 65.840,362.899 65.831 C 363.001 65.830,362.840 65.638,362.542 65.403 C 362.013 64.986,362.000 64.946,362.000 63.663 L 362.000 62.349 363.042 62.290 L 364.083 62.231 363.069 62.199 C 362.512 62.181,362.006 62.217,361.944 62.278 M366.833 62.833 C 366.502 63.047,366.918 63.047,367.417 62.833 L 367.750 62.690 367.417 62.681 C 367.233 62.676,366.971 62.744,366.833 62.833 " stroke="none" fill="#b35e16" fill-rule="evenodd"></path><path id="path3" d="M98.167 16.455 C 107.498 16.516,106.694 15.792,106.837 24.250 L 106.935 30.083 106.955 24.083 C 106.984 15.613,107.778 16.316,98.256 16.373 L 91.583 16.413 98.167 16.455 M335.500 19.843 C 338.655 20.109,339.419 20.204,339.575 20.351 C 339.662 20.433,339.925 20.495,340.158 20.489 L 340.583 20.479 340.167 20.295 C 339.603 20.047,337.783 19.832,335.667 19.765 L 333.917 19.710 335.500 19.843 M369.250 19.842 C 370.075 19.915,371.238 20.054,371.833 20.150 C 373.923 20.486,374.326 20.522,373.750 20.318 C 372.999 20.052,371.110 19.812,369.333 19.757 L 367.750 19.708 369.250 19.842 M340.917 20.667 C 340.973 20.758,341.132 20.833,341.270 20.833 C 341.407 20.833,341.473 20.758,341.417 20.667 C 341.360 20.575,341.201 20.500,341.064 20.500 C 340.926 20.500,340.860 20.575,340.917 20.667 M374.583 20.667 C 374.640 20.758,374.799 20.833,374.936 20.833 C 375.074 20.833,375.140 20.758,375.083 20.667 C 375.027 20.575,374.868 20.500,374.730 20.500 C 374.593 20.500,374.527 20.575,374.583 20.667 M315.083 20.782 C 315.408 20.829,315.919 21.185,316.542 21.797 C 317.727 22.963,317.792 23.408,316.875 24.096 C 316.531 24.355,316.212 24.608,316.167 24.659 C 316.121 24.710,315.783 24.974,315.417 25.245 C 315.050 25.516,314.668 25.816,314.568 25.911 C 314.468 26.006,314.135 26.271,313.827 26.500 C 313.520 26.729,313.039 27.107,312.759 27.340 C 312.479 27.572,311.856 28.056,311.375 28.416 C 310.894 28.775,310.500 29.090,310.500 29.115 C 310.500 29.221,311.731 29.667,312.023 29.667 C 312.196 29.667,312.468 29.733,312.627 29.815 C 312.786 29.896,313.200 30.102,313.546 30.272 C 314.712 30.844,315.394 31.649,315.926 33.083 C 316.368 34.274,316.520 51.941,316.093 52.591 C 315.848 52.965,315.722 52.992,313.958 53.042 L 312.083 53.095 314.016 53.131 C 316.801 53.182,316.517 54.363,316.462 42.982 L 316.417 33.417 315.953 32.472 C 315.156 30.849,314.075 30.077,311.542 29.324 C 310.842 29.116,310.838 29.111,311.209 28.860 C 311.415 28.721,311.812 28.414,312.092 28.179 C 312.372 27.943,312.851 27.563,313.156 27.333 C 313.461 27.104,313.863 26.785,314.048 26.625 C 314.233 26.465,314.429 26.332,314.484 26.329 C 314.539 26.327,314.857 26.084,315.192 25.788 C 315.527 25.492,316.223 24.919,316.738 24.514 C 318.143 23.409,318.147 23.155,316.784 21.665 C 316.088 20.904,315.894 20.785,315.284 20.750 C 314.899 20.728,314.808 20.742,315.083 20.782 M30.833 21.000 C 31.162 21.212,31.548 21.212,31.417 21.000 C 31.360 20.908,31.149 20.834,30.948 20.836 C 30.652 20.838,30.630 20.869,30.833 21.000 M53.833 21.000 C 54.162 21.212,54.548 21.212,54.417 21.000 C 54.360 20.908,54.149 20.834,53.948 20.836 C 53.652 20.838,53.630 20.869,53.833 21.000 M306.167 21.000 C 306.495 21.212,306.881 21.212,306.750 21.000 C 306.693 20.908,306.483 20.834,306.282 20.836 C 305.985 20.838,305.963 20.869,306.167 21.000 M343.000 21.547 C 349.103 24.607,351.834 32.746,349.973 42.333 C 348.969 47.507,346.140 51.206,341.958 52.811 C 341.003 53.177,340.442 53.480,340.698 53.489 C 340.854 53.495,341.027 53.425,341.083 53.333 C 341.140 53.242,341.333 53.167,341.512 53.167 C 341.691 53.167,341.968 53.100,342.127 53.019 C 342.286 52.937,342.829 52.662,343.333 52.408 C 348.334 49.885,350.667 44.957,350.667 36.917 C 350.667 29.419,348.267 23.920,344.083 21.833 C 343.625 21.604,343.225 21.360,343.194 21.292 C 343.164 21.223,343.000 21.167,342.829 21.167 C 342.659 21.167,342.473 21.092,342.417 21.000 C 342.360 20.908,342.149 20.834,341.948 20.835 C 341.735 20.836,342.171 21.132,343.000 21.547 M375.667 21.000 C 375.995 21.212,376.381 21.212,376.250 21.000 C 376.193 20.908,375.983 20.834,375.782 20.836 C 375.485 20.838,375.463 20.869,375.667 21.000 M32.119 21.629 C 32.547 21.991,35.500 26.330,35.500 26.596 C 35.500 26.752,37.980 30.468,38.157 30.577 C 38.345 30.694,38.013 30.006,37.475 29.167 C 37.328 28.938,36.253 27.250,35.085 25.417 C 32.869 21.937,32.278 21.164,31.844 21.171 C 31.673 21.174,31.767 21.331,32.119 21.629 M55.000 21.417 C 55.114 21.554,55.297 21.667,55.406 21.667 C 55.516 21.667,55.769 21.958,55.969 22.314 L 56.333 22.962 56.333 37.174 L 56.333 51.385 55.910 51.940 C 55.152 52.933,55.337 52.909,47.750 53.004 L 40.750 53.090 47.683 53.129 C 55.255 53.170,55.259 53.170,56.115 52.190 C 56.670 51.554,56.691 50.916,56.635 36.121 L 56.583 22.493 55.917 21.838 C 55.263 21.196,54.542 20.865,55.000 21.417 M307.442 21.509 C 308.146 21.960,308.458 22.679,308.639 24.263 L 308.790 25.583 308.812 24.234 C 308.840 22.475,308.152 21.160,307.207 21.169 C 307.007 21.171,307.080 21.277,307.442 21.509 M376.760 21.411 C 376.938 21.546,377.175 21.658,377.287 21.661 C 377.746 21.673,379.990 23.130,379.996 23.420 C 380.001 23.645,379.193 24.861,378.863 25.125 C 378.630 25.312,378.632 25.333,378.887 25.333 C 379.147 25.333,380.333 23.721,380.333 23.367 C 380.333 23.094,379.739 22.675,378.278 21.917 C 376.848 21.175,376.132 20.937,376.760 21.411 M267.794 23.444 C 268.350 23.669,268.416 24.237,268.500 29.500 L 268.583 34.750 270.708 34.797 L 272.833 34.843 272.833 36.028 C 272.833 37.607,272.762 37.655,270.375 37.661 L 268.500 37.667 268.500 42.800 C 268.500 48.318,268.537 48.586,269.357 49.071 C 269.875 49.377,270.000 49.395,270.000 49.167 C 270.000 49.075,269.866 49.000,269.703 49.000 C 268.871 49.000,268.754 48.283,268.697 42.875 L 268.645 37.833 270.535 37.833 C 272.991 37.833,273.167 37.728,273.167 36.254 C 273.167 34.590,273.280 34.667,270.816 34.667 L 268.667 34.667 268.667 29.370 C 268.667 23.759,268.607 23.312,267.866 23.346 C 267.689 23.355,267.662 23.391,267.794 23.444 M374.168 24.927 C 369.904 27.937,369.940 46.399,374.214 49.006 C 374.866 49.403,375.251 49.428,374.667 49.036 C 372.650 47.681,371.849 45.374,371.501 39.917 C 370.948 31.234,372.471 25.158,375.336 24.623 C 375.705 24.554,375.696 24.544,375.250 24.531 C 374.967 24.523,374.497 24.695,374.168 24.927 M339.932 28.243 C 335.925 32.366,337.340 46.547,341.750 46.463 C 342.281 46.453,342.315 46.436,341.917 46.383 C 341.106 46.274,340.377 45.863,339.975 45.288 C 339.768 44.992,339.554 44.712,339.499 44.667 C 339.250 44.459,338.616 42.786,338.361 41.667 C 337.086 36.052,338.235 29.490,340.788 27.807 C 341.140 27.575,341.179 27.502,340.952 27.501 C 340.788 27.500,340.329 27.834,339.932 28.243 M233.750 29.346 C 235.727 29.463,237.257 29.640,238.583 29.907 C 239.067 30.004,239.070 30.001,238.667 29.820 C 237.942 29.494,236.325 29.304,233.917 29.260 L 231.583 29.218 233.750 29.346 M109.250 29.677 C 110.612 29.820,111.302 29.981,111.429 30.187 C 111.543 30.371,111.833 30.379,111.833 30.197 C 111.833 29.934,110.044 29.500,109.069 29.527 L 108.083 29.554 109.250 29.677 M167.750 29.663 C 168.392 29.723,169.067 29.831,169.250 29.904 C 169.716 30.088,170.725 30.530,170.875 30.615 C 170.944 30.654,171.000 30.625,171.000 30.551 C 171.000 30.170,168.764 29.496,167.604 29.527 L 166.583 29.554 167.750 29.663 M174.458 29.621 C 174.756 29.658,175.244 29.658,175.542 29.621 C 175.840 29.584,175.596 29.553,175.000 29.553 C 174.404 29.553,174.160 29.584,174.458 29.621 M203.750 29.667 C 205.290 29.842,205.826 29.984,206.363 30.360 C 206.609 30.532,206.852 30.605,206.903 30.523 C 207.110 30.187,205.277 29.601,203.917 29.567 L 202.583 29.534 203.750 29.667 M211.083 29.670 C 213.392 29.899,214.651 30.734,215.384 32.524 C 215.803 33.545,216.064 51.924,215.670 52.660 C 215.516 52.948,215.284 52.995,213.789 53.042 L 212.083 53.096 213.849 53.132 C 215.376 53.162,215.652 53.125,215.891 52.862 C 216.237 52.480,216.315 34.962,215.977 33.544 C 215.337 30.855,213.578 29.456,210.929 29.527 L 209.917 29.554 211.083 29.670 M176.250 29.833 C 176.307 29.925,176.501 30.000,176.682 30.000 C 177.406 30.000,178.671 31.140,179.168 32.242 C 179.755 33.542,179.833 34.894,179.833 43.704 C 179.833 53.928,180.064 52.971,177.583 53.046 L 175.917 53.097 177.696 53.132 C 179.125 53.160,179.528 53.115,179.738 52.905 C 180.144 52.498,180.132 34.122,179.725 32.905 C 179.341 31.757,178.298 30.333,177.841 30.333 C 177.745 30.333,177.667 30.270,177.667 30.193 C 177.667 30.116,177.377 29.966,177.022 29.860 C 176.234 29.624,176.118 29.620,176.250 29.833 M75.167 30.167 C 75.765 30.358,76.035 30.358,75.917 30.167 C 75.860 30.075,75.574 30.007,75.282 30.017 C 74.774 30.032,74.769 30.039,75.167 30.167 M84.390 30.236 C 85.168 30.580,85.161 30.480,85.164 41.676 C 85.167 54.216,85.395 52.972,83.083 53.044 L 81.417 53.097 83.199 53.132 C 85.757 53.182,85.500 54.468,85.500 41.622 L 85.500 30.818 85.091 30.409 C 84.866 30.184,84.510 30.006,84.299 30.014 C 83.943 30.026,83.950 30.042,84.390 30.236 M135.333 30.167 C 135.471 30.256,135.733 30.328,135.917 30.328 C 136.193 30.328,136.207 30.300,136.000 30.167 C 135.862 30.078,135.600 30.005,135.417 30.005 C 135.141 30.005,135.126 30.033,135.333 30.167 M162.000 30.167 C 162.642 30.372,162.985 30.372,162.667 30.167 C 162.529 30.078,162.229 30.011,162.000 30.019 L 161.583 30.033 162.000 30.167 M198.083 30.167 C 198.577 30.379,199.161 30.379,198.833 30.167 C 198.696 30.078,198.396 30.009,198.167 30.014 C 197.785 30.023,197.778 30.035,198.083 30.167 M76.987 30.871 C 77.917 31.781,77.902 31.636,77.996 40.667 C 78.090 49.772,78.097 49.836,78.964 49.831 L 79.417 49.828 79.014 49.623 C 78.228 49.221,78.193 48.818,78.179 40.103 C 78.165 31.110,78.190 31.324,77.086 30.601 C 76.435 30.174,76.392 30.290,76.987 30.871 M112.569 31.028 C 113.939 32.629,113.911 32.392,113.960 43.000 C 113.987 48.888,113.943 52.510,113.842 52.667 C 113.723 52.851,113.227 52.942,111.965 53.012 L 110.250 53.106 112.022 53.137 C 114.568 53.180,114.333 54.157,114.333 43.519 C 114.333 33.186,114.236 32.395,112.785 30.875 C 112.036 30.090,111.868 30.209,112.569 31.028 M137.000 30.404 C 137.000 30.442,137.281 30.564,137.625 30.675 C 140.049 31.454,141.676 32.730,142.553 34.543 C 143.712 36.940,143.882 38.482,143.806 45.890 C 143.725 53.697,144.747 52.987,133.500 53.044 L 125.250 53.087 133.594 53.127 C 145.145 53.182,143.999 54.108,143.999 44.721 C 144.000 38.461,143.923 37.073,143.511 35.917 C 142.867 34.108,141.291 32.084,140.012 31.423 C 138.974 30.886,137.000 30.218,137.000 30.404 M241.333 30.960 C 244.876 32.689,246.833 36.348,246.833 41.243 C 246.833 43.266,246.819 43.350,246.458 43.495 C 246.089 43.643,246.089 43.646,246.439 43.656 C 247.445 43.686,247.579 41.429,246.793 37.667 C 246.128 34.479,242.432 30.276,240.352 30.342 C 240.204 30.346,240.646 30.625,241.333 30.960 M308.667 40.611 C 308.667 50.333,308.604 51.168,307.809 51.999 C 306.942 52.907,306.915 52.910,299.750 53.004 L 293.083 53.091 299.688 53.129 C 309.653 53.186,308.722 54.374,308.833 41.466 C 308.879 36.168,308.860 31.833,308.792 31.833 C 308.723 31.833,308.667 35.783,308.667 40.611 M107.125 33.232 C 106.854 33.437,106.833 34.037,106.828 41.518 C 106.822 49.966,106.729 51.638,106.232 52.187 C 105.520 52.974,105.321 52.995,98.083 53.042 L 91.250 53.087 98.183 53.127 C 104.408 53.163,105.173 53.138,105.683 52.885 C 107.042 52.210,107.000 52.540,107.000 42.506 L 107.000 33.694 107.458 33.353 C 107.742 33.141,107.821 33.011,107.667 33.011 C 107.529 33.011,107.285 33.110,107.125 33.232 M165.716 33.251 C 165.359 33.501,165.359 33.516,165.304 42.459 C 165.244 52.340,165.301 51.841,164.167 52.551 C 163.598 52.908,163.417 52.919,156.833 53.004 L 150.083 53.091 156.833 53.126 C 166.523 53.177,165.566 54.351,165.628 42.333 L 165.674 33.583 166.045 33.295 C 166.501 32.942,166.213 32.903,165.716 33.251 M172.875 33.279 L 172.500 33.541 172.500 43.083 C 172.500 54.082,172.735 52.965,170.407 53.042 L 168.750 53.097 170.532 53.132 C 173.089 53.182,172.845 54.246,172.827 43.129 C 172.812 33.724,172.823 33.534,173.417 33.199 C 173.645 33.070,173.671 33.011,173.500 33.014 C 173.362 33.016,173.081 33.135,172.875 33.279 M201.750 33.262 C 201.426 33.507,201.414 33.760,201.333 42.495 C 201.225 54.206,202.295 52.882,192.833 53.004 L 186.083 53.091 192.856 53.129 C 199.837 53.168,199.835 53.168,200.766 52.500 C 201.587 51.910,201.580 51.993,201.633 42.585 C 201.683 33.845,201.687 33.750,202.037 33.377 C 202.437 32.952,202.256 32.880,201.750 33.262 M209.002 33.298 L 208.634 33.596 208.657 42.756 C 208.673 49.231,208.625 52.075,208.490 52.458 L 208.301 53.000 206.609 53.035 L 204.917 53.070 206.563 53.125 C 209.086 53.208,208.833 54.317,208.833 43.155 L 208.833 33.694 209.292 33.353 C 209.544 33.164,209.665 33.008,209.560 33.005 C 209.456 33.002,209.205 33.134,209.002 33.298 M123.250 34.167 C 123.193 34.258,123.037 34.333,122.904 34.333 C 122.770 34.333,122.355 34.526,121.982 34.761 C 121.610 34.996,120.992 35.251,120.611 35.326 L 119.917 35.463 120.534 35.482 C 120.946 35.494,121.435 35.333,122.000 35.000 C 122.466 34.725,122.942 34.500,123.057 34.500 C 123.172 34.500,123.338 34.430,123.425 34.344 C 123.512 34.259,123.883 34.159,124.250 34.122 L 124.917 34.056 124.135 34.028 C 123.705 34.013,123.307 34.075,123.250 34.167 M248.961 34.787 C 249.261 34.825,249.711 34.824,249.961 34.786 C 250.212 34.748,249.967 34.717,249.417 34.718 C 248.867 34.719,248.662 34.750,248.961 34.787 M238.840 35.133 C 237.776 35.656,236.880 37.717,236.789 39.849 L 236.750 40.750 239.583 40.759 L 242.417 40.767 239.750 40.675 L 237.083 40.583 237.125 39.667 C 237.170 38.677,237.462 37.347,237.691 37.092 C 237.769 37.005,237.833 36.815,237.833 36.670 C 237.833 36.302,238.973 35.167,239.343 35.167 C 239.510 35.167,239.693 35.092,239.750 35.000 C 239.903 34.752,239.492 34.812,238.840 35.133 M249.460 37.785 C 249.668 37.824,249.968 37.823,250.127 37.781 C 250.286 37.739,250.117 37.707,249.750 37.709 C 249.383 37.711,249.253 37.745,249.460 37.785 M124.583 41.167 C 124.527 41.258,124.345 41.333,124.180 41.333 C 123.701 41.333,122.408 42.588,121.992 43.455 C 121.165 45.182,121.591 47.846,122.867 48.920 C 123.554 49.497,123.630 49.341,122.994 48.660 C 120.886 46.403,121.730 42.592,124.600 41.412 C 125.355 41.102,125.479 41.007,125.135 41.004 C 124.888 41.002,124.640 41.075,124.583 41.167 M38.222 41.690 C 38.122 41.815,37.609 42.742,37.081 43.750 C 36.554 44.758,36.067 45.658,36.000 45.750 C 35.932 45.842,35.519 46.592,35.082 47.417 C 34.193 49.091,33.779 49.623,33.167 49.871 C 32.928 49.968,32.838 50.072,32.956 50.116 C 33.489 50.314,34.367 49.349,35.413 47.417 C 35.760 46.775,36.308 45.762,36.631 45.167 C 36.954 44.571,37.437 43.673,37.704 43.170 C 37.970 42.668,38.266 42.165,38.360 42.051 C 38.454 41.937,38.503 41.759,38.468 41.654 C 38.424 41.521,38.349 41.532,38.222 41.690 M24.900 43.958 C 25.435 53.925,25.701 52.886,22.582 53.007 L 20.250 53.098 22.627 53.132 L 25.005 53.167 25.344 52.625 C 25.591 52.230,25.656 51.925,25.584 51.500 C 25.510 51.060,25.257 45.268,25.174 42.125 C 25.170 41.965,25.081 41.833,24.977 41.833 C 24.838 41.833,24.817 42.411,24.900 43.958 M236.918 43.830 C 236.392 44.683,238.559 49.000,239.513 49.000 C 239.785 49.000,239.681 48.845,238.992 48.223 C 238.277 47.577,237.760 46.615,237.394 45.250 C 236.982 43.711,236.601 43.845,241.542 43.792 L 245.917 43.744 241.468 43.705 C 238.690 43.681,236.982 43.728,236.918 43.830 M243.583 48.290 C 244.778 48.412,245.805 49.923,245.120 50.554 C 244.306 51.303,241.611 52.525,239.333 53.177 C 238.843 53.318,238.690 53.416,238.893 53.462 C 239.063 53.500,239.284 53.449,239.384 53.349 C 239.485 53.249,239.720 53.166,239.908 53.164 C 240.571 53.160,243.835 51.796,243.972 51.467 C 244.003 51.393,244.098 51.333,244.184 51.333 C 244.448 51.333,245.636 50.487,245.735 50.230 C 245.786 50.096,245.556 49.577,245.224 49.077 L 244.619 48.167 243.768 48.195 C 242.981 48.221,242.967 48.228,243.583 48.290 M378.375 48.548 C 378.960 48.743,379.606 49.451,379.877 50.195 C 380.116 50.848,378.426 51.898,375.593 52.856 C 374.682 53.164,374.072 53.442,374.236 53.474 C 374.401 53.505,374.617 53.449,374.718 53.349 C 374.818 53.249,375.106 53.167,375.357 53.167 C 375.608 53.167,375.860 53.092,375.917 53.000 C 375.973 52.908,376.129 52.833,376.262 52.833 C 376.494 52.833,378.905 51.732,379.250 51.469 C 379.342 51.399,379.639 51.161,379.911 50.940 L 380.406 50.538 380.078 49.928 C 379.480 48.816,379.127 48.494,378.417 48.414 L 377.750 48.339 378.375 48.548 M272.471 50.336 L 272.526 51.673 271.911 51.930 C 271.574 52.071,271.331 52.220,271.373 52.262 C 271.523 52.412,272.659 51.826,272.827 51.511 C 273.174 50.863,273.011 49.000,272.607 49.000 C 272.476 48.999,272.434 49.413,272.471 50.336 M123.780 49.513 C 123.878 49.612,124.212 49.757,124.521 49.835 C 124.830 49.913,125.271 50.025,125.500 50.083 L 125.917 50.188 125.500 49.933 C 125.271 49.793,124.919 49.676,124.718 49.673 C 124.517 49.669,124.307 49.592,124.250 49.500 C 124.193 49.408,124.024 49.333,123.873 49.333 C 123.678 49.333,123.651 49.385,123.780 49.513 M78.917 52.532 C 77.740 52.916,77.357 53.001,76.738 53.013 C 75.937 53.028,74.647 53.467,75.342 53.487 C 75.575 53.494,75.838 53.432,75.925 53.348 C 76.012 53.264,76.496 53.160,77.000 53.115 C 78.355 52.995,80.747 52.340,79.750 52.362 C 79.567 52.366,79.192 52.442,78.917 52.532 M270.250 52.494 C 270.067 52.569,269.598 52.714,269.208 52.816 C 267.748 53.196,267.167 53.390,267.248 53.471 C 267.294 53.516,267.632 53.467,267.999 53.360 C 268.366 53.254,268.985 53.083,269.375 52.980 C 270.451 52.696,271.302 52.350,270.917 52.353 C 270.733 52.355,270.433 52.418,270.250 52.494 M70.292 53.622 C 70.681 53.657,71.319 53.657,71.708 53.622 C 72.098 53.587,71.779 53.558,71.000 53.558 C 70.221 53.558,69.902 53.587,70.292 53.622 M237.167 53.667 C 236.963 53.798,236.985 53.829,237.282 53.831 C 237.483 53.832,237.693 53.758,237.750 53.667 C 237.881 53.454,237.495 53.454,237.167 53.667 M265.417 53.667 L 265.083 53.810 265.417 53.819 C 265.600 53.824,265.862 53.756,266.000 53.667 C 266.331 53.453,265.915 53.453,265.417 53.667 M339.167 53.667 C 338.963 53.798,338.985 53.829,339.282 53.831 C 339.483 53.832,339.693 53.758,339.750 53.667 C 339.881 53.454,339.495 53.454,339.167 53.667 M372.667 53.667 C 372.463 53.798,372.485 53.829,372.782 53.831 C 372.983 53.832,373.193 53.758,373.250 53.667 C 373.381 53.454,372.995 53.454,372.667 53.667 M233.426 53.984 C 233.373 54.070,233.637 54.096,234.042 54.045 C 234.980 53.925,235.051 53.833,234.204 53.833 C 233.828 53.833,233.478 53.901,233.426 53.984 M261.333 54.001 C 261.163 54.113,261.348 54.131,261.917 54.059 C 262.375 54.001,262.781 53.926,262.819 53.893 C 262.985 53.750,261.559 53.854,261.333 54.001 M336.333 54.000 C 335.928 54.130,335.931 54.133,336.417 54.133 C 336.692 54.133,337.104 54.073,337.333 54.000 C 337.738 53.870,337.736 53.867,337.250 53.867 C 336.975 53.867,336.563 53.927,336.333 54.000 M369.860 54.258 C 369.430 55.202,369.673 55.667,370.599 55.667 C 370.822 55.667,371.135 55.735,371.294 55.819 C 371.453 55.903,371.878 56.101,372.238 56.258 C 375.424 57.649,375.936 62.469,373.120 64.554 C 371.468 65.778,370.581 66.015,367.083 66.162 L 364.417 66.274 367.167 66.247 C 370.074 66.219,370.770 66.113,372.036 65.510 C 377.004 63.142,375.933 56.142,370.500 55.468 C 369.647 55.363,369.902 54.089,370.804 53.952 C 371.165 53.896,371.136 53.879,370.652 53.858 C 370.160 53.838,370.019 53.909,369.860 54.258 M366.460 58.285 C 366.668 58.324,366.968 58.323,367.127 58.281 C 367.286 58.239,367.117 58.207,366.750 58.209 C 366.383 58.211,366.253 58.245,366.460 58.285 M364.847 62.560 C 364.885 62.593,365.404 62.663,366.000 62.716 C 366.671 62.775,366.956 62.757,366.750 62.668 C 366.434 62.531,364.700 62.433,364.847 62.560 " stroke="none" fill="#5caeeb" fill-rule="evenodd"></path><path id="path4" d="M90.395 16.740 C 90.108 16.865,89.821 17.051,89.758 17.154 C 89.694 17.257,89.948 17.181,90.321 16.987 C 91.251 16.502,91.297 16.347,90.395 16.740 M89.193 18.144 C 88.795 19.472,88.931 50.857,89.339 51.724 C 89.666 52.420,90.633 53.172,91.189 53.163 C 91.314 53.161,91.099 53.015,90.712 52.839 C 89.221 52.163,89.335 53.654,89.334 34.781 C 89.334 23.631,89.390 18.038,89.506 17.822 C 89.601 17.645,89.613 17.500,89.532 17.500 C 89.452 17.500,89.299 17.790,89.193 18.144 M332.750 19.838 C 332.527 19.936,332.666 19.952,333.167 19.886 C 333.579 19.832,333.948 19.760,333.986 19.727 C 334.131 19.601,333.068 19.697,332.750 19.838 M366.417 19.835 C 366.202 19.927,366.381 19.945,366.917 19.883 C 367.375 19.830,367.781 19.759,367.819 19.727 C 367.964 19.602,366.735 19.697,366.417 19.835 M330.167 20.260 C 329.846 20.382,329.696 20.484,329.833 20.488 C 329.971 20.492,330.383 20.387,330.750 20.255 C 331.117 20.123,331.267 20.020,331.083 20.027 C 330.900 20.034,330.487 20.139,330.167 20.260 M363.833 20.260 C 363.512 20.382,363.373 20.485,363.523 20.491 C 363.672 20.496,364.047 20.390,364.356 20.257 C 365.050 19.955,364.632 19.958,363.833 20.260 M311.708 22.542 C 308.885 25.264,308.816 25.334,308.953 25.326 C 309.134 25.316,313.782 20.839,313.615 20.836 C 313.540 20.834,312.682 21.602,311.708 22.542 M19.851 21.756 L 19.333 22.345 19.333 37.480 C 19.333 53.881,19.296 53.167,20.161 53.167 C 20.280 53.167,20.181 53.011,19.939 52.821 L 19.500 52.476 19.500 37.560 C 19.500 21.777,19.476 22.245,20.307 21.542 C 20.551 21.337,20.664 21.168,20.559 21.167 C 20.454 21.167,20.135 21.432,19.851 21.756 M291.422 21.756 C 291.096 22.082,290.835 22.509,290.838 22.714 C 290.841 22.998,290.908 22.938,291.129 22.453 C 291.287 22.107,291.642 21.676,291.917 21.496 C 292.192 21.316,292.325 21.168,292.214 21.168 C 292.102 21.167,291.746 21.432,291.422 21.756 M326.667 21.527 C 325.623 22.128,323.670 23.693,323.295 24.228 C 323.081 24.534,323.453 24.264,324.196 23.575 C 324.893 22.928,325.921 22.155,326.481 21.857 C 327.419 21.357,327.694 21.148,327.375 21.178 C 327.306 21.185,326.987 21.342,326.667 21.527 M42.978 21.958 C 42.424 22.566,42.230 22.892,40.912 25.427 C 40.295 26.613,39.462 28.203,39.062 28.960 C 38.345 30.314,38.118 30.891,38.556 30.245 C 38.679 30.065,39.441 28.642,40.249 27.083 C 42.444 22.852,42.499 22.756,43.097 22.104 C 43.401 21.772,43.593 21.500,43.523 21.500 C 43.453 21.500,43.208 21.706,42.978 21.958 M359.669 22.017 C 359.257 22.287,358.807 22.629,358.669 22.776 C 358.480 22.978,360.254 21.888,360.653 21.558 C 360.965 21.299,360.265 21.626,359.669 22.017 M357.310 23.958 C 356.107 25.197,354.496 27.640,354.502 28.214 C 354.504 28.326,354.809 27.858,355.182 27.175 C 356.055 25.572,356.377 25.121,357.477 23.958 C 357.976 23.431,358.352 23.000,358.312 23.000 C 358.272 23.000,357.821 23.431,357.310 23.958 M290.746 37.083 C 290.746 44.600,290.767 47.651,290.792 43.863 C 290.817 40.074,290.817 33.924,290.792 30.196 C 290.767 26.467,290.746 29.567,290.746 37.083 M263.667 23.829 C 263.529 23.908,263.171 24.064,262.870 24.175 C 262.569 24.287,262.353 24.408,262.390 24.445 C 262.427 24.482,262.673 24.425,262.937 24.319 C 263.944 23.912,264.090 23.855,264.333 23.775 C 264.501 23.720,264.473 23.692,264.250 23.690 C 264.067 23.688,263.804 23.751,263.667 23.829 M376.403 24.917 C 376.854 25.146,377.247 25.309,377.276 25.280 C 377.354 25.202,376.003 24.500,375.776 24.501 C 375.670 24.501,375.952 24.689,376.403 24.917 M322.154 25.793 C 321.297 27.169,320.494 28.963,320.508 29.466 C 320.513 29.622,320.691 29.295,320.905 28.740 C 321.401 27.454,321.917 26.438,322.531 25.542 C 322.798 25.152,322.956 24.834,322.883 24.835 C 322.810 24.836,322.482 25.267,322.154 25.793 M259.750 25.333 C 259.693 25.425,259.483 25.509,259.282 25.519 C 259.052 25.532,259.013 25.565,259.177 25.609 C 259.321 25.648,259.658 25.564,259.927 25.424 C 260.232 25.265,260.310 25.168,260.135 25.168 C 259.980 25.167,259.807 25.242,259.750 25.333 M258.217 25.851 C 257.701 26.000,257.307 26.333,257.647 26.333 C 257.739 26.333,257.860 26.258,257.917 26.167 C 257.973 26.075,258.161 26.000,258.333 26.000 C 258.506 26.000,258.693 25.925,258.750 25.833 C 258.807 25.742,258.830 25.673,258.802 25.682 C 258.773 25.690,258.510 25.766,258.217 25.851 M254.742 27.138 C 254.655 27.213,254.264 27.376,253.874 27.498 C 253.484 27.620,253.196 27.751,253.233 27.789 C 253.311 27.867,254.756 27.397,255.154 27.164 C 255.388 27.027,255.388 27.010,255.158 27.005 C 255.016 27.002,254.829 27.062,254.742 27.138 M343.784 28.245 C 343.949 28.471,344.153 28.659,344.237 28.661 C 344.322 28.664,344.215 28.479,344.000 28.250 C 343.500 27.718,343.399 27.716,343.784 28.245 M251.375 28.498 C 251.077 28.680,250.839 28.961,250.845 29.123 C 250.856 29.389,250.868 29.387,250.979 29.104 C 251.047 28.932,251.360 28.654,251.676 28.486 C 251.992 28.318,252.175 28.178,252.083 28.174 C 251.992 28.171,251.673 28.317,251.375 28.498 M354.240 28.768 C 354.185 28.941,354.071 29.256,353.986 29.466 C 353.902 29.677,353.839 29.977,353.846 30.133 C 353.852 30.289,354.002 30.010,354.178 29.513 C 354.355 29.017,354.463 28.575,354.420 28.531 C 354.377 28.488,354.296 28.594,354.240 28.768 M344.653 29.388 C 345.148 30.288,345.618 31.872,345.824 33.333 C 345.920 34.021,346.026 34.771,346.060 35.000 C 346.094 35.229,346.131 35.042,346.144 34.583 C 346.187 32.976,345.346 29.923,344.641 29.132 C 344.310 28.760,344.310 28.767,344.653 29.388 M229.917 29.500 C 229.455 29.617,229.449 29.629,229.833 29.644 C 230.063 29.654,230.362 29.589,230.500 29.500 C 230.784 29.317,230.637 29.317,229.917 29.500 M208.667 29.833 C 208.323 29.943,208.309 29.969,208.583 29.981 C 208.767 29.989,209.029 29.922,209.167 29.833 C 209.459 29.645,209.256 29.645,208.667 29.833 M228.000 29.833 C 227.657 29.943,227.642 29.969,227.917 29.981 C 228.100 29.989,228.362 29.922,228.500 29.833 C 228.792 29.645,228.589 29.645,228.000 29.833 M320.184 30.442 C 319.628 32.529,319.298 36.552,319.503 38.734 C 319.719 41.036,320.135 43.523,320.358 43.842 C 320.480 44.017,320.498 43.947,320.424 43.583 C 320.368 43.308,320.199 42.483,320.049 41.750 C 319.510 39.124,319.688 32.911,320.368 30.624 C 320.470 30.280,320.509 29.954,320.455 29.899 C 320.400 29.844,320.278 30.089,320.184 30.442 M62.583 30.167 C 62.461 30.364,62.625 30.364,63.083 30.167 C 63.405 30.029,63.404 30.023,63.052 30.012 C 62.851 30.005,62.640 30.075,62.583 30.167 M80.865 30.340 L 80.500 30.680 80.500 39.973 C 80.500 46.979,80.451 49.316,80.300 49.467 C 80.166 49.600,80.160 49.667,80.282 49.667 C 80.641 49.667,80.667 49.021,80.667 40.018 C 80.667 30.415,80.652 30.611,81.417 30.192 C 81.665 30.057,81.683 30.009,81.490 30.005 C 81.347 30.002,81.065 30.153,80.865 30.340 M186.083 30.167 C 185.961 30.364,186.125 30.364,186.583 30.167 C 186.905 30.029,186.904 30.023,186.552 30.012 C 186.351 30.005,186.140 30.075,186.083 30.167 M148.667 30.547 C 148.529 30.659,148.306 30.900,148.172 31.083 C 147.987 31.335,148.048 31.315,148.422 31.002 C 148.694 30.775,148.988 30.531,149.075 30.461 C 149.175 30.380,149.175 30.335,149.075 30.339 C 148.988 30.342,148.804 30.435,148.667 30.547 M184.422 30.922 C 184.096 31.249,183.835 31.676,183.838 31.881 C 183.841 32.165,183.908 32.105,184.129 31.620 C 184.287 31.274,184.642 30.843,184.917 30.663 C 185.192 30.483,185.325 30.335,185.214 30.334 C 185.102 30.334,184.746 30.598,184.422 30.922 M353.600 30.792 C 352.773 33.490,352.836 41.818,353.695 43.167 C 353.807 43.344,353.826 43.271,353.760 42.917 C 353.274 40.313,353.172 39.290,353.173 37.000 C 353.173 34.742,353.377 32.672,353.768 30.958 C 353.882 30.458,353.744 30.321,353.600 30.792 M60.662 31.208 C 60.114 32.097,60.231 48.124,60.794 49.517 C 61.120 50.321,62.306 51.963,62.326 51.637 C 62.330 51.575,62.237 51.425,62.120 51.304 C 60.574 49.711,60.500 49.190,60.500 39.863 L 60.500 31.781 60.925 31.224 C 61.159 30.917,61.270 30.667,61.173 30.667 C 61.075 30.667,60.845 30.910,60.662 31.208 M224.921 30.885 C 222.120 32.573,220.922 33.825,219.870 36.167 C 219.229 37.592,218.998 38.334,219.009 38.928 C 219.015 39.229,219.143 38.936,219.342 38.167 C 220.119 35.165,222.063 32.615,224.583 31.290 C 225.225 30.952,225.637 30.679,225.500 30.681 C 225.362 30.684,225.102 30.776,224.921 30.885 M122.000 31.264 C 121.448 31.570,121.812 31.565,122.523 31.257 C 122.890 31.097,122.969 31.016,122.750 31.023 C 122.567 31.028,122.229 31.137,122.000 31.264 M147.726 31.792 C 147.499 32.255,147.450 50.363,147.674 51.192 C 147.866 51.906,148.637 52.837,149.029 52.829 C 149.150 52.826,149.049 52.700,148.803 52.547 C 147.897 51.985,147.917 52.232,147.917 41.475 C 147.917 35.989,147.906 31.500,147.893 31.500 C 147.880 31.500,147.805 31.631,147.726 31.792 M309.240 32.092 C 309.418 32.225,309.667 32.333,309.794 32.333 C 310.067 32.333,310.324 32.575,310.761 33.242 C 311.067 33.710,311.087 34.202,311.167 43.175 C 311.254 53.085,311.263 53.188,311.979 53.154 C 312.207 53.142,312.210 53.125,312.000 53.043 C 311.351 52.791,311.344 52.696,311.339 43.353 C 311.332 32.605,311.343 32.672,309.540 32.062 C 308.987 31.875,308.953 31.878,309.240 32.092 M119.208 32.683 C 118.819 32.959,118.500 33.291,118.500 33.420 C 118.500 33.766,119.037 34.833,119.211 34.833 C 119.293 34.833,119.199 34.572,119.002 34.253 C 118.547 33.517,118.662 33.158,119.502 32.686 C 120.135 32.330,120.316 32.158,120.042 32.174 C 119.973 32.178,119.598 32.407,119.208 32.683 M183.743 41.917 C 183.749 50.848,183.772 51.615,184.042 51.995 C 184.377 52.469,184.435 52.322,184.125 51.781 C 183.968 51.506,183.894 49.055,183.826 41.833 L 183.736 32.250 183.743 41.917 M108.870 33.514 L 109.250 34.027 109.333 43.437 C 109.422 53.416,109.402 53.183,110.167 53.151 C 110.389 53.142,110.389 53.130,110.167 53.051 C 109.504 52.814,109.500 52.750,109.500 43.437 C 109.500 33.967,109.421 33.000,108.647 33.000 C 108.561 33.000,108.661 33.231,108.870 33.514 M167.285 33.320 C 167.807 33.880,167.829 34.300,167.834 43.583 C 167.838 52.716,167.863 53.029,168.588 53.123 C 168.871 53.160,168.865 53.144,168.548 53.008 L 168.180 52.849 168.132 43.633 C 168.080 33.752,168.039 33.296,167.180 33.027 C 167.035 32.982,167.075 33.095,167.285 33.320 M174.641 33.442 C 174.998 33.965,175.000 34.029,175.000 42.989 C 175.000 52.568,175.046 53.167,175.779 53.167 C 176.030 53.167,176.018 53.127,175.704 52.907 L 175.333 52.648 175.326 43.866 C 175.318 34.634,175.269 33.849,174.660 33.274 L 174.283 32.917 174.641 33.442 M203.444 33.325 C 203.551 33.467,203.713 33.846,203.804 34.167 C 203.955 34.699,203.971 34.711,203.985 34.301 C 203.993 34.046,203.838 33.682,203.625 33.459 C 203.419 33.244,203.337 33.183,203.444 33.325 M210.500 33.079 C 210.500 33.134,210.631 33.379,210.792 33.623 C 211.058 34.029,211.091 34.875,211.171 43.242 L 211.258 52.417 211.296 43.395 C 211.328 35.734,211.296 34.285,211.086 33.782 C 210.866 33.255,210.500 32.816,210.500 33.079 M125.131 34.260 C 125.916 34.811,126.373 37.227,125.800 37.800 C 125.651 37.949,125.650 38.000,125.794 38.000 C 126.305 38.000,126.471 36.863,126.148 35.578 C 125.968 34.863,125.307 34.000,124.940 34.000 C 124.841 34.000,124.926 34.117,125.131 34.260 M204.039 43.683 C 203.997 53.298,204.011 53.456,204.865 53.114 C 205.011 53.055,204.990 53.022,204.802 53.013 C 204.277 52.989,204.250 52.594,204.164 43.667 L 204.078 34.750 204.039 43.683 M241.629 36.349 C 241.809 36.670,242.073 37.379,242.216 37.925 C 242.381 38.556,242.480 38.752,242.488 38.465 C 242.503 37.883,241.898 36.261,241.561 35.981 C 241.370 35.823,241.388 35.920,241.629 36.349 M248.234 37.458 C 248.409 37.665,248.709 37.825,248.901 37.814 C 249.237 37.795,249.237 37.792,248.917 37.713 C 248.733 37.669,248.433 37.509,248.250 37.358 C 247.919 37.086,247.919 37.086,248.234 37.458 M122.500 38.496 C 122.362 38.575,121.886 38.800,121.440 38.996 C 120.995 39.192,120.665 39.387,120.708 39.430 C 120.751 39.473,121.078 39.364,121.435 39.188 C 121.791 39.011,122.346 38.748,122.667 38.604 C 122.987 38.459,123.138 38.344,123.000 38.347 C 122.862 38.350,122.638 38.417,122.500 38.496 M346.030 39.000 C 345.995 39.672,345.580 42.089,345.415 42.583 C 344.777 44.489,343.934 45.692,342.891 46.186 C 342.538 46.352,342.347 46.491,342.467 46.494 C 344.144 46.538,346.360 42.152,346.127 39.250 C 346.078 38.639,346.052 38.572,346.030 39.000 M242.529 39.695 C 242.513 40.031,242.451 40.443,242.392 40.611 C 242.310 40.844,242.332 40.873,242.486 40.731 C 242.607 40.620,242.662 40.253,242.623 39.814 C 242.562 39.124,242.557 39.118,242.529 39.695 M119.917 39.875 C 118.838 40.662,117.495 42.547,117.511 43.250 C 117.516 43.460,117.623 43.333,117.801 42.910 C 118.267 41.800,118.810 41.046,119.718 40.252 C 120.641 39.445,120.725 39.286,119.917 39.875 M218.779 40.625 C 218.726 41.244,218.743 42.237,218.818 42.833 C 218.940 43.803,218.957 43.684,218.977 41.708 C 219.002 39.285,218.929 38.886,218.779 40.625 M125.917 45.562 C 125.917 49.174,125.961 50.107,126.128 50.043 C 126.395 49.941,126.351 41.145,126.083 41.055 C 125.975 41.019,125.917 42.595,125.917 45.562 M38.534 46.205 C 38.495 51.759,38.549 52.055,39.743 52.755 C 40.130 52.981,40.549 53.167,40.675 53.167 C 40.801 53.167,40.574 52.998,40.170 52.792 C 38.741 52.062,38.762 52.149,38.659 46.446 L 38.568 41.417 38.534 46.205 M25.501 42.583 C 25.805 43.133,26.108 43.658,26.175 43.750 C 26.243 43.842,26.447 44.179,26.629 44.500 C 26.810 44.821,27.241 45.571,27.586 46.167 C 27.930 46.762,28.371 47.542,28.564 47.899 C 28.758 48.256,29.179 48.822,29.500 49.159 C 29.821 49.495,29.920 49.578,29.720 49.343 C 29.521 49.109,29.101 48.467,28.788 47.917 C 27.089 44.935,25.286 41.896,25.129 41.750 C 25.030 41.658,25.198 42.033,25.501 42.583 M117.268 43.930 C 116.467 46.016,117.862 49.859,119.942 51.302 C 120.718 51.840,120.826 51.746,120.067 51.194 C 118.124 49.781,117.437 48.311,117.425 45.542 C 117.420 44.510,117.406 43.667,117.393 43.667 C 117.380 43.667,117.323 43.785,117.268 43.930 M353.838 43.833 C 353.838 43.971,353.911 44.196,354.000 44.333 C 354.144 44.556,354.162 44.556,354.162 44.333 C 354.162 44.196,354.089 43.971,354.000 43.833 C 353.856 43.611,353.838 43.611,353.838 43.833 M219.000 44.546 C 219.000 44.876,219.080 45.196,219.177 45.257 C 219.298 45.331,219.318 45.161,219.239 44.725 C 219.084 43.874,219.000 43.810,219.000 44.546 M320.503 44.367 C 320.491 45.409,322.491 48.861,323.882 50.202 C 324.806 51.092,326.640 52.415,326.770 52.285 C 326.813 52.242,326.489 51.997,326.049 51.740 C 324.090 50.596,322.163 48.193,321.111 45.583 C 320.778 44.758,320.505 44.211,320.503 44.367 M354.178 44.786 C 354.161 45.085,355.366 47.667,355.523 47.667 C 355.597 47.667,355.410 47.160,355.108 46.542 C 354.806 45.923,354.476 45.229,354.374 45.000 C 354.272 44.771,354.184 44.674,354.178 44.786 M219.342 45.712 C 219.330 46.110,220.309 48.247,220.442 48.114 C 220.500 48.056,220.452 47.893,220.336 47.753 C 220.219 47.612,219.950 47.029,219.737 46.457 C 219.525 45.885,219.347 45.550,219.342 45.712 M250.853 48.086 C 250.796 50.057,253.063 53.187,254.531 53.163 C 254.651 53.161,254.450 53.020,254.083 52.849 C 252.681 52.195,251.506 50.636,251.184 49.000 C 251.085 48.496,250.974 47.933,250.938 47.750 C 250.902 47.567,250.863 47.718,250.853 48.086 M355.675 47.927 C 355.652 48.393,357.813 50.614,359.167 51.515 C 359.579 51.790,359.692 51.843,359.417 51.634 C 358.708 51.094,356.285 48.664,355.958 48.167 C 355.807 47.938,355.680 47.829,355.675 47.927 M242.290 48.486 C 241.624 48.913,241.501 49.086,242.083 48.777 C 242.782 48.407,243.113 48.170,242.917 48.181 C 242.825 48.187,242.543 48.324,242.290 48.486 M220.509 48.417 C 220.511 48.637,220.976 49.246,221.070 49.152 C 221.111 49.111,221.001 48.892,220.826 48.664 C 220.651 48.436,220.508 48.325,220.509 48.417 M221.588 49.837 C 222.147 50.501,223.656 51.733,223.769 51.620 C 223.810 51.579,223.635 51.409,223.380 51.242 C 223.125 51.075,222.506 50.559,222.004 50.094 C 221.369 49.507,221.243 49.428,221.588 49.837 M290.846 51.219 C 290.813 52.018,292.166 53.202,293.062 53.157 C 293.165 53.152,292.932 53.019,292.543 52.861 C 291.685 52.512,291.312 52.160,291.054 51.453 C 290.939 51.137,290.853 51.041,290.846 51.219 M62.500 51.799 C 62.500 51.967,63.963 52.833,64.247 52.833 C 64.375 52.833,64.527 52.908,64.583 53.000 C 64.640 53.092,64.888 53.162,65.135 53.156 C 65.476 53.149,65.384 53.082,64.750 52.878 C 64.292 52.730,63.598 52.400,63.208 52.144 C 62.819 51.888,62.500 51.732,62.500 51.799 M80.708 52.667 C 80.845 52.896,81.098 53.101,81.270 53.122 C 81.488 53.149,81.507 53.130,81.333 53.060 C 81.196 53.005,80.943 52.800,80.771 52.605 L 80.459 52.250 80.708 52.667 M122.644 52.574 C 122.953 52.717,123.403 52.825,123.644 52.814 C 124.022 52.798,124.002 52.776,123.500 52.662 C 123.179 52.589,122.729 52.481,122.500 52.422 C 122.230 52.353,122.281 52.407,122.644 52.574 M184.594 52.517 C 184.733 52.742,185.862 53.187,186.071 53.100 C 186.175 53.058,186.159 53.021,186.034 53.013 C 185.915 53.006,185.521 52.857,185.158 52.681 C 184.795 52.506,184.542 52.432,184.594 52.517 M225.407 52.589 C 225.585 52.723,225.862 52.833,226.022 52.833 C 226.182 52.833,226.360 52.908,226.417 53.000 C 226.473 53.092,226.721 53.158,226.968 53.147 C 227.302 53.133,227.331 53.109,227.083 53.055 C 226.745 52.982,226.153 52.748,225.627 52.481 C 225.179 52.252,225.047 52.317,225.407 52.589 M327.240 52.589 C 327.418 52.723,327.681 52.833,327.824 52.832 C 327.966 52.832,327.869 52.719,327.606 52.582 C 327.002 52.267,326.819 52.270,327.240 52.589 M360.926 52.578 C 361.104 52.713,361.363 52.825,361.500 52.827 C 361.637 52.829,361.535 52.719,361.273 52.582 C 360.665 52.265,360.510 52.263,360.926 52.578 M211.339 52.592 C 211.331 52.853,211.698 53.168,211.992 53.154 C 212.216 53.142,212.217 53.128,212.000 53.043 C 211.862 52.990,211.659 52.827,211.547 52.681 C 211.435 52.536,211.342 52.495,211.339 52.592 M124.333 52.998 C 124.471 53.088,124.765 53.163,124.986 53.164 C 125.521 53.168,125.385 53.073,124.667 52.941 C 124.256 52.866,124.157 52.882,124.333 52.998 M68.875 53.615 C 69.035 53.657,69.298 53.657,69.458 53.615 C 69.619 53.573,69.487 53.539,69.167 53.539 C 68.846 53.539,68.715 53.573,68.875 53.615 M232.014 53.893 C 232.052 53.926,232.383 53.999,232.750 54.055 C 233.204 54.125,233.337 54.106,233.167 53.998 C 232.939 53.853,231.852 53.754,232.014 53.893 M259.847 53.893 C 259.885 53.926,260.217 53.999,260.583 54.055 C 261.037 54.125,261.170 54.106,261.000 53.998 C 260.772 53.853,259.685 53.754,259.847 53.893 M332.917 54.000 C 333.622 54.179,334.227 54.179,333.667 54.000 C 333.438 53.927,333.063 53.868,332.833 53.870 C 332.459 53.872,332.468 53.886,332.917 54.000 M365.517 54.458 C 365.531 55.016,365.548 55.039,365.667 54.667 C 365.857 54.071,365.857 53.833,365.667 53.833 C 365.575 53.833,365.507 54.115,365.517 54.458 M365.290 55.389 C 365.222 55.557,365.171 55.894,365.177 56.139 L 365.188 56.583 365.351 56.174 C 365.441 55.950,365.492 55.612,365.464 55.424 C 365.417 55.108,365.405 55.105,365.290 55.389 M364.983 57.186 C 364.893 57.600,365.142 58.167,365.414 58.167 C 365.484 58.167,365.463 58.073,365.368 57.958 C 365.274 57.844,365.170 57.525,365.137 57.250 L 365.078 56.750 364.983 57.186 M367.811 58.423 C 368.119 58.557,368.457 58.664,368.561 58.660 C 368.665 58.657,368.498 58.544,368.189 58.410 C 367.881 58.276,367.543 58.170,367.439 58.173 C 367.335 58.177,367.502 58.289,367.811 58.423 M368.833 58.739 C 368.833 58.807,369.001 58.999,369.206 59.165 C 369.719 59.581,369.745 61.274,369.247 61.861 L 368.917 62.250 369.266 61.956 C 369.819 61.490,370.050 60.494,369.764 59.809 C 369.543 59.280,368.833 58.464,368.833 58.739 M361.601 62.430 C 361.018 63.950,362.117 66.378,363.194 65.948 C 363.324 65.897,363.270 65.854,363.066 65.846 C 362.177 65.813,361.805 65.112,361.863 63.580 C 361.914 62.237,361.825 61.847,361.601 62.430 M367.375 62.615 C 367.535 62.657,367.798 62.657,367.958 62.615 C 368.119 62.573,367.988 62.539,367.667 62.539 C 367.346 62.539,367.215 62.573,367.375 62.615 M363.667 66.159 C 363.804 66.252,364.060 66.329,364.236 66.331 C 364.663 66.334,364.529 66.239,363.917 66.102 C 363.552 66.020,363.484 66.036,363.667 66.159 " stroke="none" fill="#f2b35b" fill-rule="evenodd"></path></g></svg>