<svg data-v-423bf9ae="" xmlns="http://www.w3.org/2000/svg" viewBox="0 0 564 107" class="iconLeft"><!----><!----><!----><g data-v-423bf9ae="" id="d7a1acbf-461a-4794-97b3-251d3677786f" fill="white" transform="matrix(4.573171104014766,0,0,4.573171104014766,95.39663949369293,6.32286182781673)"><path d="M10.02 13.52L10.02 4.36L9.53 4.36L5.80 8.44L2.00 4.36L1.50 4.36L1.50 13.52L2.73 13.52L2.73 6.82L5.62 9.97L5.97 9.97L8.79 6.82L8.79 13.52ZM18.28 6.69L17.12 6.69L17.12 10.73C17.12 11.92 16.30 12.56 15.38 12.56C14.46 12.56 13.64 11.92 13.64 10.73L13.64 6.69L12.48 6.69L12.48 10.73C12.48 12.54 13.74 13.66 15.38 13.66C17.02 13.66 18.28 12.54 18.28 10.73ZM23.75 6.55C22.82 6.55 21.94 7.23 21.52 7.77L21.52 3.68L20.40 3.68L20.40 13.52L21.52 13.52L21.52 8.98C22.07 8.27 22.83 7.64 23.56 7.64C24.64 7.64 25.14 8.29 25.14 9.46L25.16 13.52L26.28 13.52L26.28 9.35C26.28 7.46 25.14 6.55 23.75 6.55ZM31.21 6.55C29.34 6.55 27.92 7.96 27.92 10.21C27.92 12.29 29.34 13.73 31.10 13.73C32.14 13.73 32.98 13.08 33.46 12.36L33.46 13.52L34.58 13.52L34.58 6.69L33.46 6.69L33.46 7.60C32.87 6.95 31.99 6.55 31.21 6.55ZM31.42 7.64C32.25 7.64 32.87 8.07 33.44 8.78L33.46 10.09C33.47 11.55 32.53 12.63 31.28 12.63C29.96 12.63 29.08 11.54 29.08 10.21C29.08 8.89 29.96 7.64 31.42 7.64ZM44.79 6.55C43.78 6.55 43.08 7.19 42.44 7.94C41.97 7.01 41.06 6.55 40.07 6.55C39.14 6.55 38.46 7.07 38.02 7.56L38.02 6.69L36.90 6.69L36.90 13.52L38.02 13.52L38.02 8.76C38.53 8.15 39.13 7.64 39.88 7.64C40.96 7.64 41.60 8.29 41.60 9.46L41.62 13.52L42.74 13.52L42.74 8.87C43.26 8.22 43.80 7.64 44.60 7.64C45.68 7.64 46.32 8.29 46.32 9.46L46.33 13.52L47.46 13.52L47.46 9.35C47.46 7.46 46.18 6.55 44.79 6.55ZM57.46 6.55C56.45 6.55 55.75 7.19 55.11 7.94C54.65 7.01 53.73 6.55 52.75 6.55C51.82 6.55 51.13 7.07 50.70 7.56L50.70 6.69L49.57 6.69L49.57 13.52L50.70 13.52L50.70 8.76C51.20 8.15 51.80 7.64 52.55 7.64C53.63 7.64 54.28 8.29 54.28 9.46L54.29 13.52L55.41 13.52L55.41 8.87C55.93 8.22 56.48 7.64 57.27 7.64C58.35 7.64 58.99 8.29 58.99 9.46L59.01 13.52L60.13 13.52L60.13 9.35C60.13 7.46 58.86 6.55 57.46 6.55ZM68.21 9.87C68.21 8.00 67.17 6.55 65.06 6.55C63.14 6.55 61.77 8.20 61.77 10.14C61.77 12.09 63.26 13.73 65.34 13.73C66.40 13.73 67.12 13.26 67.39 12.99L67.39 11.85C66.94 12.18 66.32 12.63 65.34 12.63C64.03 12.63 63.12 11.69 62.96 10.54L68.21 10.54ZM62.99 9.58C63.18 8.50 63.94 7.64 65.06 7.64C66.02 7.64 66.96 8.26 67.10 9.58ZM71.94 6.69L71.94 4.72L71.42 4.72C70.97 6.07 70.40 7.01 69.51 7.41L69.51 7.74L70.82 7.74L70.82 11.80C70.82 12.96 71.42 13.73 72.58 13.73C73.27 13.73 73.62 13.54 73.99 13.25L73.99 12.33C73.72 12.50 73.38 12.66 72.83 12.66C72.23 12.66 71.94 12.32 71.94 11.74L71.94 7.74L73.94 7.74L73.94 6.69ZM82.82 9.57L86.26 13.52L87.96 13.52L83.71 8.59L87.55 4.36L85.83 4.36L81.65 9.17L81.65 4.36L80.42 4.36L80.42 13.52L81.65 13.52L81.65 10.86ZM91.81 6.55C89.73 6.55 88.24 8.20 88.24 10.14C88.24 12.09 89.73 13.73 91.81 13.73C93.88 13.73 95.38 12.09 95.38 10.14C95.38 8.20 93.88 6.55 91.81 6.55ZM91.81 7.64C93.27 7.64 94.21 8.82 94.21 10.14C94.21 11.47 93.27 12.63 91.81 12.63C90.34 12.63 89.40 11.47 89.40 10.14C89.40 8.82 90.34 7.64 91.81 7.64ZM100.31 7.64C101.23 7.64 101.84 7.97 102.36 8.35L102.36 7.22C102.09 6.96 101.31 6.55 100.31 6.55C98.23 6.55 96.74 8.20 96.74 10.14C96.74 11.88 97.93 13.37 99.65 13.67L99.49 15.13L99.71 15.30C99.89 15.20 100.05 15.18 100.19 15.18C100.53 15.18 100.72 15.33 100.72 15.57C100.72 15.82 100.50 16.00 100.19 16.00C99.79 16.00 99.46 15.86 99.18 15.71L99.08 16.46C99.37 16.69 99.87 16.80 100.15 16.80C101.09 16.80 101.65 16.26 101.65 15.53C101.65 14.86 101.09 14.38 100.34 14.48L100.41 13.73C101.35 13.70 102.10 13.32 102.36 13.06L102.36 11.92C101.84 12.30 101.23 12.63 100.31 12.63C98.85 12.63 97.90 11.47 97.90 10.14C97.90 8.82 98.85 7.64 100.31 7.64Z"></path></g><!----><g data-v-423bf9ae="" id="7121a085-dc7f-4643-b6ce-f85952a75fdb" transform="matrix(1.0868111504448785,0,0,1.0868111504448785,-13.255261890115804,-0.23894260335429607)" stroke="none" fill="white"><g clip-rule="evenodd"><path d="M12.983 10.59l17.018 88.223-5.872-59.049 29.021-1.892-.054-9.883L64.549 1 53.622 18.977z"></path><path d="M59.389 54.548l5.16-53.541-8.74 39.716-19.612 1.045 1.57 20.462-7.766 36.583 12.057-39.899z"></path><path d="M62.8 67.182l.549-10.453-15.979 3.755-.032 11.797-17.337 26.532 21.68-27.616zM65.711 62.394l14.841-4.731 1.509-12.532-15.899 2.095zM72.07 44.502l10.988-1.417 1.581-10.278-8.079-.373L64.549 1l8.43 30.967z"></path><path d="M87.413 31.294l1.256-9.506-9.544-2.694L64.549 1l14.483 22.437-.422 7z"></path></g></g><!----></svg>